<?xml version="1.0" encoding="UTF-8"?>
<svg xmlns="http://www.w3.org/2000/svg" xmlns:xlink="http://www.w3.org/1999/xlink" width="181.41pt" height="152.39pt" viewBox="0 0 181.41 152.39" version="1.1">
<defs>
<clipPath id="clip1">
  <path d="M 0 48 L 92 48 L 92 152.390625 L 0 152.390625 Z M 0 48 "/>
</clipPath>
<clipPath id="clip2">
  <path d="M 34 0 L 181.410156 0 L 181.410156 152.390625 L 34 152.390625 Z M 34 0 "/>
</clipPath>
</defs>
<g id="surface1">
<path style=" stroke:none;fill-rule:nonzero;fill:rgb(18.798828%,19.198608%,54.098511%);fill-opacity:1;" d="M 84.863281 103.097656 L 95.292969 103.097656 C 100.921875 103.097656 106.722656 101.738281 110.984375 97.929688 L 109.355469 106.273438 C 106.90625 106.453125 103.910156 106.726563 100.648438 106.726563 L 74.433594 106.726563 C 76.425781 103.640625 76.703125 98.925781 76.703125 94.84375 L 76.703125 60.742188 C 76.703125 56.660156 76.703125 51.941406 74.707031 48.855469 L 106.359375 48.855469 L 106.722656 55.839844 C 103.546875 53.121094 98.652344 52.484375 93.300781 52.484375 L 84.863281 52.484375 L 84.863281 74.164063 C 91.84375 74.164063 99.199219 74.164063 106.179688 73.527344 C 103.003906 78.699219 92.753906 78.699219 87.132813 78.699219 L 84.863281 78.699219 L 84.863281 103.097656 "/>
<path style=" stroke:none;fill-rule:nonzero;fill:rgb(18.798828%,19.198608%,54.098511%);fill-opacity:1;" d="M 129.835938 94.84375 C 129.835938 98.925781 129.835938 103.640625 131.828125 106.726563 L 119.675781 106.726563 C 121.675781 103.640625 121.675781 98.925781 121.675781 94.84375 L 121.675781 60.742188 C 121.675781 56.660156 121.855469 51.941406 119.859375 48.855469 L 147.976563 48.855469 C 150.242188 48.855469 152.144531 48.855469 152.144531 49.671875 L 152.144531 56.75 L 151.695313 56.75 C 149.15625 52.578125 143.445313 52.484375 139.179688 52.484375 L 129.835938 52.484375 L 129.835938 75.796875 C 136.820313 75.796875 144.164063 75.796875 151.152344 75.164063 C 147.976563 80.332031 137.726563 80.332031 132.101563 80.332031 L 129.835938 80.332031 L 129.835938 94.84375 "/>
<g clip-path="url(#clip1)" clip-rule="nonzero">
<path style=" stroke:none;fill-rule:nonzero;fill:rgb(18.798828%,19.198608%,54.098511%);fill-opacity:1;" d="M 33.089844 98.894531 L 49.707031 59.652344 C 49.976563 58.925781 50.25 58.289063 50.882813 58.289063 C 51.519531 58.289063 51.519531 59.378906 51.519531 60.285156 L 51.519531 90.398438 C 51.519531 95.480469 51.519531 102.191406 49.886719 106.726563 L 63.21875 106.726563 C 61.222656 103.097656 60.859375 98.925781 60.40625 94.84375 C 59.230469 83.960938 59.683594 72.621094 59.683594 61.738281 C 59.683594 57.203125 59.410156 52.304688 61.496094 48.855469 L 52.246094 48.855469 C 49.976563 48.855469 49.34375 50.761719 48.523438 52.667969 L 32.832031 90.492188 C 32.289063 91.757813 32.015625 92.667969 31.199219 92.667969 C 30.476563 92.667969 30.203125 91.125 29.75 89.765625 L 16.867188 50.21875 C 16.503906 49.039063 15.140625 48.855469 14.054688 48.855469 L 2.269531 48.855469 C 4.445313 50.21875 4.535156 51.488281 4.535156 53.9375 L 4.535156 76.613281 C 4.535156 86.410156 4.171875 100.742188 0.816406 105.542969 L 0 106.726563 L 10.792969 106.726563 C 8.800781 103.730469 8.800781 97.835938 8.800781 90.761719 L 8.886719 61.28125 C 8.886719 59.921875 8.886719 58.289063 9.703125 58.289063 C 10.523438 58.289063 11.15625 60.464844 12.152344 63.097656 L 29.390625 107.636719 C 39.9375 134.570313 63.519531 149.632813 91.851563 152.09375 L 91.851563 152.003906 C 46.011719 146.898438 33.539063 100.613281 33.089844 98.894531 "/>
</g>
<g clip-path="url(#clip2)" clip-rule="nonzero">
<path style=" stroke:none;fill-rule:nonzero;fill:rgb(81.599426%,62.69989%,14.498901%);fill-opacity:1;" d="M 181.414063 76.472656 C 181.414063 34.234375 147.167969 -0.00390625 104.933594 -0.00390625 C 73.351563 -0.00390625 46.242188 19.136719 34.574219 46.453125 C 34.574219 46.453125 53.855469 8.949219 102.390625 8.949219 C 150.929688 8.949219 172.992188 47.085938 174.726563 75.257813 C 176.359375 101.867188 156.3125 146.660156 113.984375 152.324219 L 113.984375 152.390625 C 151.953125 147.914063 181.414063 115.640625 181.414063 76.472656 "/>
</g>
</g>
</svg>
