<?xml version="1.0" encoding="UTF-8"?>
<!DOCTYPE svg PUBLIC "-//W3C//DTD SVG 1.1//EN" "http://www.w3.org/Graphics/SVG/1.1/DTD/svg11.dtd">
<svg xmlns="http://www.w3.org/2000/svg" version="1.1" width="2309px" height="294px" style="shape-rendering:geometricPrecision; text-rendering:geometricPrecision; image-rendering:optimizeQuality; fill-rule:evenodd; clip-rule:evenodd" xmlns:xlink="http://www.w3.org/1999/xlink">
<g><path style="opacity:0.979" fill="#0e6e5d" d="M 88.5,-0.5 C 98.5,-0.5 108.5,-0.5 118.5,-0.5C 169.382,8.38189 199.382,38.3819 208.5,89.5C 193.5,89.5 178.5,89.5 163.5,89.5C 154.808,53.9926 132.141,37.4926 95.5,40C 73.6531,42.8642 58.4864,54.3642 50,74.5C 47.2188,83.9668 45.5521,93.6334 45,103.5C 42.8636,135.528 43.1969,167.528 46,199.5C 50.4882,233.155 69.6549,251.155 103.5,253.5C 138.792,251.705 158.958,233.372 164,198.5C 164.5,189.84 164.666,181.173 164.5,172.5C 143.833,172.5 123.167,172.5 102.5,172.5C 102.5,159.833 102.5,147.167 102.5,134.5C 138.167,134.5 173.833,134.5 209.5,134.5C 209.845,157.523 209.345,180.523 208,203.5C 203.128,242.78 182.628,270.28 146.5,286C 136.603,289.474 126.603,291.974 116.5,293.5C 107.833,293.5 99.1667,293.5 90.5,293.5C 50.8465,288.671 23.0132,268.005 7,231.5C 3.07946,218.294 0.579459,204.96 -0.5,191.5C -0.5,161.5 -0.5,131.5 -0.5,101.5C 2.27742,43.9011 31.9441,9.90111 88.5,-0.5 Z"/></g>
<g><path style="opacity:0.979" fill="#a9b34c" d="M 1418.5,-0.5 C 1428.5,-0.5 1438.5,-0.5 1448.5,-0.5C 1499.37,8.36771 1529.37,38.3677 1538.5,89.5C 1523.49,89.8327 1508.49,89.4993 1493.5,88.5C 1484.35,53.5352 1461.69,37.3686 1425.5,40C 1400.37,43.2997 1384.53,57.133 1378,81.5C 1374.79,102.864 1373.29,124.364 1373.5,146C 1373.66,160.845 1374.16,175.678 1375,190.5C 1375.89,229.033 1395.39,250.033 1433.5,253.5C 1469.75,251.41 1489.92,232.41 1494,196.5C 1494.5,188.507 1494.67,180.507 1494.5,172.5C 1473.83,172.5 1453.17,172.5 1432.5,172.5C 1432.5,159.833 1432.5,147.167 1432.5,134.5C 1468.17,134.5 1503.83,134.5 1539.5,134.5C 1540.04,159.888 1539.21,185.221 1537,210.5C 1530.09,247.751 1508.92,273.251 1473.5,287C 1464.56,289.987 1455.56,292.153 1446.5,293.5C 1437.83,293.5 1429.17,293.5 1420.5,293.5C 1363.71,284.531 1333.54,251.198 1330,193.5C 1329.33,162.167 1329.33,130.833 1330,99.5C 1333.27,42.741 1362.77,9.40771 1418.5,-0.5 Z"/></g>
<g><path style="opacity:0.978" fill="#a9b34c" d="M 1934.5,-0.5 C 1944.5,-0.5 1954.5,-0.5 1964.5,-0.5C 2008.37,5.85511 2037.2,30.1884 2051,72.5C 2052.62,78.0861 2053.78,83.7528 2054.5,89.5C 2039.5,89.5 2024.5,89.5 2009.5,89.5C 2000.82,54.0032 1978.15,37.5032 1941.5,40C 1913.83,44.0853 1897.66,59.9187 1893,87.5C 1892.09,93.4727 1891.43,99.4727 1891,105.5C 1890.33,132.833 1890.33,160.167 1891,187.5C 1890.84,203.888 1895.18,218.888 1904,232.5C 1923.54,252.841 1946.7,258.341 1973.5,249C 1992.95,241.215 2004.78,227.048 2009,206.5C 2010.33,195.21 2010.83,183.877 2010.5,172.5C 1989.83,172.5 1969.17,172.5 1948.5,172.5C 1948.5,159.833 1948.5,147.167 1948.5,134.5C 1984.17,134.5 2019.83,134.5 2055.5,134.5C 2055.88,157.859 2055.38,181.192 2054,204.5C 2050.29,238.781 2033.45,264.281 2003.5,281C 1990.42,287.514 1976.75,291.681 1962.5,293.5C 1953.83,293.5 1945.17,293.5 1936.5,293.5C 1899.26,288.957 1872.09,269.957 1855,236.5C 1849.43,221.331 1846.43,205.664 1846,189.5C 1845.33,160.833 1845.33,132.167 1846,103.5C 1845.86,57.222 1866.69,24.722 1908.5,6C 1917.14,3.17319 1925.81,1.00652 1934.5,-0.5 Z"/></g>
<g><path style="opacity:0.978" fill="#0e6e5d" d="M 276.5,1.5 C 317.501,1.33334 358.501,1.50001 399.5,2C 449.422,7.92034 476.088,35.9203 479.5,86C 478.318,125.318 459.318,151.484 422.5,164.5C 444.98,206.46 466.646,248.793 487.5,291.5C 470.154,291.833 452.821,291.5 435.5,290.5C 415.5,250.5 395.5,210.5 375.5,170.5C 357.512,169.5 339.512,169.167 321.5,169.5C 321.5,210.167 321.5,250.833 321.5,291.5C 306.5,291.5 291.5,291.5 276.5,291.5C 276.5,194.833 276.5,98.1667 276.5,1.5 Z M 321.5,41.5 C 346.862,41.0899 372.195,41.5899 397.5,43C 426.281,50.4796 438.114,68.9796 433,98.5C 426.593,118.551 412.759,129.385 391.5,131C 368.169,131.5 344.836,131.667 321.5,131.5C 321.5,101.5 321.5,71.5 321.5,41.5 Z"/></g>
<g><path style="opacity:0.987" fill="#0e6e5d" d="M 546.5,1.5 C 608.167,1.5 669.833,1.5 731.5,1.5C 731.5,14.8333 731.5,28.1667 731.5,41.5C 684.5,41.5 637.5,41.5 590.5,41.5C 590.5,69.5 590.5,97.5 590.5,125.5C 630.5,125.5 670.5,125.5 710.5,125.5C 710.5,138.833 710.5,152.167 710.5,165.5C 670.5,165.5 630.5,165.5 590.5,165.5C 590.5,193.833 590.5,222.167 590.5,250.5C 637.5,250.5 684.5,250.5 731.5,250.5C 731.5,264.167 731.5,277.833 731.5,291.5C 669.833,291.5 608.167,291.5 546.5,291.5C 546.5,194.833 546.5,98.1667 546.5,1.5 Z"/></g>
<g><path style="opacity:0.975" fill="#a9b34c" d="M 1673.5,1.5 C 1685.83,1.5 1698.17,1.5 1710.5,1.5C 1745.9,98.0312 1780.9,194.698 1815.5,291.5C 1799.83,291.667 1784.16,291.5 1768.5,291C 1761.64,272.075 1754.97,253.075 1748.5,234C 1710.83,233.333 1673.17,233.333 1635.5,234C 1628.83,253 1622.17,272 1615.5,291C 1599.84,291.5 1584.17,291.667 1568.5,291.5C 1603.1,194.71 1638.1,98.043 1673.5,1.5 Z M 1691.5,69.5 C 1706.04,110.956 1720.71,152.456 1735.5,194C 1706.5,194.667 1677.5,194.667 1648.5,194C 1663.13,152.605 1677.46,111.105 1691.5,69.5 Z"/></g>
<g><path style="opacity:0.976" fill="#a9b34c" d="M 2308.5,1.5 C 2308.5,14.8333 2308.5,28.1667 2308.5,41.5C 2261.5,41.5 2214.5,41.5 2167.5,41.5C 2167.5,69.5 2167.5,97.5 2167.5,125.5C 2207.5,125.5 2247.5,125.5 2287.5,125.5C 2287.5,138.833 2287.5,152.167 2287.5,165.5C 2247.5,165.5 2207.5,165.5 2167.5,165.5C 2167.5,193.833 2167.5,222.167 2167.5,250.5C 2214.5,250.5 2261.5,250.5 2308.5,250.5C 2308.5,264.167 2308.5,277.833 2308.5,291.5C 2246.5,291.5 2184.5,291.5 2122.5,291.5C 2122.5,194.833 2122.5,98.1667 2122.5,1.5C 2184.5,1.5 2246.5,1.5 2308.5,1.5 Z"/></g>
<g><path style="opacity:0.997" fill="#a5b04e" d="M 979.5,16.5 C 917.833,16.5 856.167,16.5 794.5,16.5C 794.5,11.5 794.5,6.5 794.5,1.5C 856.167,1.5 917.833,1.5 979.5,1.5C 979.5,6.5 979.5,11.5 979.5,16.5 Z"/></g>
<g><path style="opacity:0.972" fill="#a5b04e" d="M 1093.5,16.5 C 1076.5,16.5 1059.5,16.5 1042.5,16.5C 1042.5,11.5 1042.5,6.5 1042.5,1.5C 1056.52,1.16742 1070.52,1.50075 1084.5,2.5C 1087.53,7.18425 1090.53,11.8509 1093.5,16.5 Z"/></g>
<g><path style="opacity:0.978" fill="#a5b04e" d="M 1261.5,16.5 C 1246.5,16.5 1231.5,16.5 1216.5,16.5C 1216.5,11.5 1216.5,6.5 1216.5,1.5C 1231.5,1.5 1246.5,1.5 1261.5,1.5C 1261.5,6.5 1261.5,11.5 1261.5,16.5 Z"/></g>
<g><path style="opacity:0.997" fill="#9fad50" d="M 794.5,16.5 C 856.167,16.5 917.833,16.5 979.5,16.5C 979.5,20.8333 979.5,25.1667 979.5,29.5C 917.833,29.5 856.167,29.5 794.5,29.5C 794.5,25.1667 794.5,20.8333 794.5,16.5 Z"/></g>
<g><path style="opacity:0.974" fill="#9fad50" d="M 1042.5,16.5 C 1059.5,16.5 1076.5,16.5 1093.5,16.5C 1096.73,20.6218 1099.73,24.9551 1102.5,29.5C 1082.5,29.5 1062.5,29.5 1042.5,29.5C 1042.5,25.1667 1042.5,20.8333 1042.5,16.5 Z"/></g>
<g><path style="opacity:0.978" fill="#9fad50" d="M 1216.5,16.5 C 1231.5,16.5 1246.5,16.5 1261.5,16.5C 1261.5,20.8333 1261.5,25.1667 1261.5,29.5C 1246.5,29.5 1231.5,29.5 1216.5,29.5C 1216.5,25.1667 1216.5,20.8333 1216.5,16.5 Z"/></g>
<g><path style="opacity:0.997" fill="#99aa52" d="M 794.5,29.5 C 856.167,29.5 917.833,29.5 979.5,29.5C 979.5,33.5 979.5,37.5 979.5,41.5C 932.664,41.1679 885.997,41.5012 839.5,42.5C 824.5,42.5 809.5,42.5 794.5,42.5C 794.5,38.1667 794.5,33.8333 794.5,29.5 Z"/></g>
<g><path style="opacity:0.98" fill="#99a952" d="M 1042.5,29.5 C 1062.5,29.5 1082.5,29.5 1102.5,29.5C 1105.17,33.8333 1107.83,38.1667 1110.5,42.5C 1087.83,42.5 1065.17,42.5 1042.5,42.5C 1042.5,38.1667 1042.5,33.8333 1042.5,29.5 Z"/></g>
<g><path style="opacity:0.978" fill="#99a952" d="M 1216.5,29.5 C 1231.5,29.5 1246.5,29.5 1261.5,29.5C 1261.5,33.8333 1261.5,38.1667 1261.5,42.5C 1246.5,42.5 1231.5,42.5 1216.5,42.5C 1216.5,38.1667 1216.5,33.8333 1216.5,29.5 Z"/></g>
<g><path style="opacity:0.978" fill="#96a753" d="M 794.5,42.5 C 809.5,42.5 824.5,42.5 839.5,42.5C 839.5,43.1667 839.5,43.8333 839.5,44.5C 824.5,44.5 809.5,44.5 794.5,44.5C 794.5,43.8333 794.5,43.1667 794.5,42.5 Z"/></g>
<g><path style="opacity:0.981" fill="#96a753" d="M 1042.5,42.5 C 1065.17,42.5 1087.83,42.5 1110.5,42.5C 1111.34,42.8417 1111.67,43.5084 1111.5,44.5C 1088.5,44.5 1065.5,44.5 1042.5,44.5C 1042.5,43.8333 1042.5,43.1667 1042.5,42.5 Z"/></g>
<g><path style="opacity:0.978" fill="#96a753" d="M 1216.5,42.5 C 1231.5,42.5 1246.5,42.5 1261.5,42.5C 1261.5,43.1667 1261.5,43.8333 1261.5,44.5C 1246.5,44.5 1231.5,44.5 1216.5,44.5C 1216.5,43.8333 1216.5,43.1667 1216.5,42.5 Z"/></g>
<g><path style="opacity:0.978" fill="#92a554" d="M 794.5,44.5 C 809.5,44.5 824.5,44.5 839.5,44.5C 839.5,48.8333 839.5,53.1667 839.5,57.5C 824.5,57.5 809.5,57.5 794.5,57.5C 794.5,53.1667 794.5,48.8333 794.5,44.5 Z"/></g>
<g><path style="opacity:0.981" fill="#92a554" d="M 1042.5,44.5 C 1065.5,44.5 1088.5,44.5 1111.5,44.5C 1114.86,48.5346 1117.86,52.8679 1120.5,57.5C 1094.5,57.5 1068.5,57.5 1042.5,57.5C 1042.5,53.1667 1042.5,48.8333 1042.5,44.5 Z"/></g>
<g><path style="opacity:0.978" fill="#92a554" d="M 1216.5,44.5 C 1231.5,44.5 1246.5,44.5 1261.5,44.5C 1261.5,48.8333 1261.5,53.1667 1261.5,57.5C 1246.5,57.5 1231.5,57.5 1216.5,57.5C 1216.5,53.1667 1216.5,48.8333 1216.5,44.5 Z"/></g>
<g><path style="opacity:0.978" fill="#8da356" d="M 794.5,57.5 C 809.5,57.5 824.5,57.5 839.5,57.5C 839.5,59.8333 839.5,62.1667 839.5,64.5C 824.5,64.5 809.5,64.5 794.5,64.5C 794.5,62.1667 794.5,59.8333 794.5,57.5 Z"/></g>
<g><path style="opacity:0.981" fill="#8da356" d="M 1042.5,57.5 C 1068.5,57.5 1094.5,57.5 1120.5,57.5C 1122.4,59.6195 1124.07,61.9528 1125.5,64.5C 1097.83,64.5 1070.17,64.5 1042.5,64.5C 1042.5,62.1667 1042.5,59.8333 1042.5,57.5 Z"/></g>
<g><path style="opacity:0.978" fill="#8da356" d="M 1216.5,57.5 C 1231.5,57.5 1246.5,57.5 1261.5,57.5C 1261.5,59.8333 1261.5,62.1667 1261.5,64.5C 1246.5,64.5 1231.5,64.5 1216.5,64.5C 1216.5,62.1667 1216.5,59.8333 1216.5,57.5 Z"/></g>
<g><path style="opacity:0.978" fill="#8ba156" d="M 794.5,64.5 C 809.5,64.5 824.5,64.5 839.5,64.5C 839.5,66.1667 839.5,67.8333 839.5,69.5C 824.5,69.5 809.5,69.5 794.5,69.5C 794.5,67.8333 794.5,66.1667 794.5,64.5 Z"/></g>
<g><path style="opacity:0.984" fill="#8aa156" d="M 1042.5,64.5 C 1070.17,64.5 1097.83,64.5 1125.5,64.5C 1126.25,66.3325 1127.25,67.9991 1128.5,69.5C 1099.83,69.5 1071.17,69.5 1042.5,69.5C 1042.5,67.8333 1042.5,66.1667 1042.5,64.5 Z"/></g>
<g><path style="opacity:0.978" fill="#8ba156" d="M 1216.5,64.5 C 1231.5,64.5 1246.5,64.5 1261.5,64.5C 1261.5,66.1667 1261.5,67.8333 1261.5,69.5C 1246.5,69.5 1231.5,69.5 1216.5,69.5C 1216.5,67.8333 1216.5,66.1667 1216.5,64.5 Z"/></g>
<g><path style="opacity:0.978" fill="#88a057" d="M 794.5,69.5 C 809.5,69.5 824.5,69.5 839.5,69.5C 839.5,71.8333 839.5,74.1667 839.5,76.5C 824.5,76.5 809.5,76.5 794.5,76.5C 794.5,74.1667 794.5,71.8333 794.5,69.5 Z"/></g>
<g><path style="opacity:0.986" fill="#87a057" d="M 1042.5,69.5 C 1071.17,69.5 1099.83,69.5 1128.5,69.5C 1130.1,71.6979 1131.43,74.0313 1132.5,76.5C 1102.5,76.5 1072.5,76.5 1042.5,76.5C 1042.5,74.1667 1042.5,71.8333 1042.5,69.5 Z"/></g>
<g><path style="opacity:0.978" fill="#88a057" d="M 1216.5,69.5 C 1231.5,69.5 1246.5,69.5 1261.5,69.5C 1261.5,71.8333 1261.5,74.1667 1261.5,76.5C 1246.5,76.5 1231.5,76.5 1216.5,76.5C 1216.5,74.1667 1216.5,71.8333 1216.5,69.5 Z"/></g>
<g><path style="opacity:0.978" fill="#849e58" d="M 794.5,76.5 C 809.5,76.5 824.5,76.5 839.5,76.5C 839.5,78.8333 839.5,81.1667 839.5,83.5C 824.5,83.5 809.5,83.5 794.5,83.5C 794.5,81.1667 794.5,78.8333 794.5,76.5 Z"/></g>
<g><path style="opacity:0.985" fill="#849e58" d="M 1042.5,76.5 C 1072.5,76.5 1102.5,76.5 1132.5,76.5C 1134.52,78.5313 1136.19,80.8646 1137.5,83.5C 1105.83,83.5 1074.17,83.5 1042.5,83.5C 1042.5,81.1667 1042.5,78.8333 1042.5,76.5 Z"/></g>
<g><path style="opacity:0.978" fill="#849e58" d="M 1216.5,76.5 C 1231.5,76.5 1246.5,76.5 1261.5,76.5C 1261.5,78.8333 1261.5,81.1667 1261.5,83.5C 1246.5,83.5 1231.5,83.5 1216.5,83.5C 1216.5,81.1667 1216.5,78.8333 1216.5,76.5 Z"/></g>
<g><path style="opacity:0.978" fill="#829d58" d="M 794.5,83.5 C 809.5,83.5 824.5,83.5 839.5,83.5C 839.5,85.1667 839.5,86.8333 839.5,88.5C 824.5,88.5 809.5,88.5 794.5,88.5C 794.5,86.8333 794.5,85.1667 794.5,83.5 Z"/></g>
<g><path style="opacity:0.985" fill="#829d58" d="M 1042.5,83.5 C 1074.17,83.5 1105.83,83.5 1137.5,83.5C 1138.89,84.8993 1139.89,86.5659 1140.5,88.5C 1107.83,88.5 1075.17,88.5 1042.5,88.5C 1042.5,86.8333 1042.5,85.1667 1042.5,83.5 Z"/></g>
<g><path style="opacity:0.978" fill="#829d58" d="M 1216.5,83.5 C 1231.5,83.5 1246.5,83.5 1261.5,83.5C 1261.5,85.1667 1261.5,86.8333 1261.5,88.5C 1246.5,88.5 1231.5,88.5 1216.5,88.5C 1216.5,86.8333 1216.5,85.1667 1216.5,83.5 Z"/></g>
<g><path style="opacity:0.978" fill="#7e9b59" d="M 794.5,88.5 C 809.5,88.5 824.5,88.5 839.5,88.5C 839.5,91.8333 839.5,95.1667 839.5,98.5C 824.5,98.5 809.5,98.5 794.5,98.5C 794.5,95.1667 794.5,91.8333 794.5,88.5 Z"/></g>
<g><path style="opacity:0.976" fill="#7e9b59" d="M 1042.5,88.5 C 1075.17,88.5 1107.83,88.5 1140.5,88.5C 1143.31,91.4459 1145.65,94.7792 1147.5,98.5C 1129.5,98.5 1111.5,98.5 1093.5,98.5C 1091.89,95.7139 1090.05,93.0472 1088,90.5C 1087.5,93.146 1087.34,95.8127 1087.5,98.5C 1072.5,98.5 1057.5,98.5 1042.5,98.5C 1042.5,95.1667 1042.5,91.8333 1042.5,88.5 Z"/></g>
<g><path style="opacity:0.978" fill="#7e9b59" d="M 1216.5,88.5 C 1231.5,88.5 1246.5,88.5 1261.5,88.5C 1261.5,91.8333 1261.5,95.1667 1261.5,98.5C 1246.5,98.5 1231.5,98.5 1216.5,98.5C 1216.5,95.1667 1216.5,91.8333 1216.5,88.5 Z"/></g>
<g><path style="opacity:0.978" fill="#79985a" d="M 794.5,98.5 C 809.5,98.5 824.5,98.5 839.5,98.5C 839.5,103.167 839.5,107.833 839.5,112.5C 824.5,112.5 809.5,112.5 794.5,112.5C 794.5,107.833 794.5,103.167 794.5,98.5 Z"/></g>
<g><path style="opacity:0.978" fill="#79985a" d="M 1042.5,98.5 C 1057.5,98.5 1072.5,98.5 1087.5,98.5C 1087.5,103.167 1087.5,107.833 1087.5,112.5C 1072.5,112.5 1057.5,112.5 1042.5,112.5C 1042.5,107.833 1042.5,103.167 1042.5,98.5 Z"/></g>
<g><path style="opacity:0.98" fill="#79985a" d="M 1093.5,98.5 C 1111.5,98.5 1129.5,98.5 1147.5,98.5C 1150.5,103.167 1153.5,107.833 1156.5,112.5C 1138.83,112.5 1121.17,112.5 1103.5,112.5C 1099.81,108.135 1096.48,103.469 1093.5,98.5 Z"/></g>
<g><path style="opacity:0.978" fill="#79985a" d="M 1216.5,98.5 C 1231.5,98.5 1246.5,98.5 1261.5,98.5C 1261.5,103.167 1261.5,107.833 1261.5,112.5C 1246.5,112.5 1231.5,112.5 1216.5,112.5C 1216.5,107.833 1216.5,103.167 1216.5,98.5 Z"/></g>
<g><path style="opacity:0.978" fill="#75965a" d="M 794.5,112.5 C 809.5,112.5 824.5,112.5 839.5,112.5C 839.5,113.5 839.5,114.5 839.5,115.5C 824.5,115.5 809.5,115.5 794.5,115.5C 794.5,114.5 794.5,113.5 794.5,112.5 Z"/></g>
<g><path style="opacity:0.978" fill="#75965a" d="M 1042.5,112.5 C 1057.5,112.5 1072.5,112.5 1087.5,112.5C 1087.5,113.5 1087.5,114.5 1087.5,115.5C 1072.5,115.5 1057.5,115.5 1042.5,115.5C 1042.5,114.5 1042.5,113.5 1042.5,112.5 Z"/></g>
<g><path style="opacity:0.98" fill="#75965a" d="M 1103.5,112.5 C 1121.17,112.5 1138.83,112.5 1156.5,112.5C 1157.4,113.29 1158.07,114.29 1158.5,115.5C 1140.83,115.5 1123.17,115.5 1105.5,115.5C 1104.09,115.027 1103.43,114.027 1103.5,112.5 Z"/></g>
<g><path style="opacity:0.978" fill="#75965a" d="M 1216.5,112.5 C 1231.5,112.5 1246.5,112.5 1261.5,112.5C 1261.5,113.5 1261.5,114.5 1261.5,115.5C 1246.5,115.5 1231.5,115.5 1216.5,115.5C 1216.5,114.5 1216.5,113.5 1216.5,112.5 Z"/></g>
<g><path style="opacity:0.978" fill="#73945b" d="M 794.5,115.5 C 809.5,115.5 824.5,115.5 839.5,115.5C 839.5,118.5 839.5,121.5 839.5,124.5C 824.5,124.5 809.5,124.5 794.5,124.5C 794.5,121.5 794.5,118.5 794.5,115.5 Z"/></g>
<g><path style="opacity:0.978" fill="#73945b" d="M 1042.5,115.5 C 1057.5,115.5 1072.5,115.5 1087.5,115.5C 1087.5,118.5 1087.5,121.5 1087.5,124.5C 1072.5,124.5 1057.5,124.5 1042.5,124.5C 1042.5,121.5 1042.5,118.5 1042.5,115.5 Z"/></g>
<g><path style="opacity:0.976" fill="#73945b" d="M 1105.5,115.5 C 1123.17,115.5 1140.83,115.5 1158.5,115.5C 1160.73,118.291 1162.73,121.291 1164.5,124.5C 1146.5,124.5 1128.5,124.5 1110.5,124.5C 1108.4,121.738 1106.74,118.738 1105.5,115.5 Z"/></g>
<g><path style="opacity:0.978" fill="#73945b" d="M 1216.5,115.5 C 1231.5,115.5 1246.5,115.5 1261.5,115.5C 1261.5,118.5 1261.5,121.5 1261.5,124.5C 1246.5,124.5 1231.5,124.5 1216.5,124.5C 1216.5,121.5 1216.5,118.5 1216.5,115.5 Z"/></g>
<g><path style="opacity:0.994" fill="#6d915c" d="M 794.5,124.5 C 809.5,124.5 824.5,124.5 839.5,124.5C 879.33,125.499 919.33,125.832 959.5,125.5C 959.5,129.833 959.5,134.167 959.5,138.5C 904.5,138.5 849.5,138.5 794.5,138.5C 794.5,133.833 794.5,129.167 794.5,124.5 Z"/></g>
<g><path style="opacity:0.978" fill="#6d915c" d="M 1042.5,124.5 C 1057.5,124.5 1072.5,124.5 1087.5,124.5C 1087.5,129.167 1087.5,133.833 1087.5,138.5C 1072.5,138.5 1057.5,138.5 1042.5,138.5C 1042.5,133.833 1042.5,129.167 1042.5,124.5 Z"/></g>
<g><path style="opacity:0.976" fill="#6d925c" d="M 1110.5,124.5 C 1128.5,124.5 1146.5,124.5 1164.5,124.5C 1167.99,128.79 1170.99,133.457 1173.5,138.5C 1155.83,138.5 1138.17,138.5 1120.5,138.5C 1116.81,134.135 1113.48,129.469 1110.5,124.5 Z"/></g>
<g><path style="opacity:0.978" fill="#6d915c" d="M 1216.5,124.5 C 1231.5,124.5 1246.5,124.5 1261.5,124.5C 1261.5,129.167 1261.5,133.833 1261.5,138.5C 1246.5,138.5 1231.5,138.5 1216.5,138.5C 1216.5,133.833 1216.5,129.167 1216.5,124.5 Z"/></g>
<g><path style="opacity:0.994" fill="#69905c" d="M 794.5,138.5 C 849.5,138.5 904.5,138.5 959.5,138.5C 959.5,139.5 959.5,140.5 959.5,141.5C 904.5,141.5 849.5,141.5 794.5,141.5C 794.5,140.5 794.5,139.5 794.5,138.5 Z"/></g>
<g><path style="opacity:0.978" fill="#69905c" d="M 1042.5,138.5 C 1057.5,138.5 1072.5,138.5 1087.5,138.5C 1087.5,139.5 1087.5,140.5 1087.5,141.5C 1072.5,141.5 1057.5,141.5 1042.5,141.5C 1042.5,140.5 1042.5,139.5 1042.5,138.5 Z"/></g>
<g><path style="opacity:0.98" fill="#69905c" d="M 1120.5,138.5 C 1138.17,138.5 1155.83,138.5 1173.5,138.5C 1174.4,139.29 1175.07,140.29 1175.5,141.5C 1157.83,141.5 1140.17,141.5 1122.5,141.5C 1121.09,141.027 1120.43,140.027 1120.5,138.5 Z"/></g>
<g><path style="opacity:0.978" fill="#69905c" d="M 1216.5,138.5 C 1231.5,138.5 1246.5,138.5 1261.5,138.5C 1261.5,139.5 1261.5,140.5 1261.5,141.5C 1246.5,141.5 1231.5,141.5 1216.5,141.5C 1216.5,140.5 1216.5,139.5 1216.5,138.5 Z"/></g>
<g><path style="opacity:0.994" fill="#668e5d" d="M 794.5,141.5 C 849.5,141.5 904.5,141.5 959.5,141.5C 959.5,145.5 959.5,149.5 959.5,153.5C 904.5,153.5 849.5,153.5 794.5,153.5C 794.5,149.5 794.5,145.5 794.5,141.5 Z"/></g>
<g><path style="opacity:0.978" fill="#668e5d" d="M 1042.5,141.5 C 1057.5,141.5 1072.5,141.5 1087.5,141.5C 1087.5,145.5 1087.5,149.5 1087.5,153.5C 1072.5,153.5 1057.5,153.5 1042.5,153.5C 1042.5,149.5 1042.5,145.5 1042.5,141.5 Z"/></g>
<g><path style="opacity:0.978" fill="#668e5d" d="M 1122.5,141.5 C 1140.17,141.5 1157.83,141.5 1175.5,141.5C 1178.53,145.205 1181.19,149.205 1183.5,153.5C 1165.5,153.5 1147.5,153.5 1129.5,153.5C 1127.14,149.483 1124.81,145.483 1122.5,141.5 Z"/></g>
<g><path style="opacity:0.978" fill="#668e5d" d="M 1216.5,141.5 C 1231.5,141.5 1246.5,141.5 1261.5,141.5C 1261.5,145.5 1261.5,149.5 1261.5,153.5C 1246.5,153.5 1231.5,153.5 1216.5,153.5C 1216.5,149.5 1216.5,145.5 1216.5,141.5 Z"/></g>
<g><path style="opacity:0.994" fill="#628c5d" d="M 794.5,153.5 C 849.5,153.5 904.5,153.5 959.5,153.5C 959.5,154.5 959.5,155.5 959.5,156.5C 904.5,156.5 849.5,156.5 794.5,156.5C 794.5,155.5 794.5,154.5 794.5,153.5 Z"/></g>
<g><path style="opacity:0.978" fill="#628c5d" d="M 1042.5,153.5 C 1057.5,153.5 1072.5,153.5 1087.5,153.5C 1087.5,154.5 1087.5,155.5 1087.5,156.5C 1072.5,156.5 1057.5,156.5 1042.5,156.5C 1042.5,155.5 1042.5,154.5 1042.5,153.5 Z"/></g>
<g><path style="opacity:0.974" fill="#628c5d" d="M 1129.5,153.5 C 1147.5,153.5 1165.5,153.5 1183.5,153.5C 1184.4,154.29 1185.07,155.29 1185.5,156.5C 1167.5,156.5 1149.5,156.5 1131.5,156.5C 1130.83,155.5 1130.17,154.5 1129.5,153.5 Z"/></g>
<g><path style="opacity:0.978" fill="#628c5d" d="M 1216.5,153.5 C 1231.5,153.5 1246.5,153.5 1261.5,153.5C 1261.5,154.5 1261.5,155.5 1261.5,156.5C 1246.5,156.5 1231.5,156.5 1216.5,156.5C 1216.5,155.5 1216.5,154.5 1216.5,153.5 Z"/></g>
<g><path style="opacity:0.994" fill="#5f8b5e" d="M 794.5,156.5 C 849.5,156.5 904.5,156.5 959.5,156.5C 959.5,159.167 959.5,161.833 959.5,164.5C 904.5,164.5 849.5,164.5 794.5,164.5C 794.5,161.833 794.5,159.167 794.5,156.5 Z"/></g>
<g><path style="opacity:0.978" fill="#5f8b5e" d="M 1042.5,156.5 C 1057.5,156.5 1072.5,156.5 1087.5,156.5C 1087.5,159.167 1087.5,161.833 1087.5,164.5C 1072.5,164.5 1057.5,164.5 1042.5,164.5C 1042.5,161.833 1042.5,159.167 1042.5,156.5 Z"/></g>
<g><path style="opacity:0.973" fill="#5f8b5e" d="M 1131.5,156.5 C 1149.5,156.5 1167.5,156.5 1185.5,156.5C 1187.66,158.822 1189.33,161.489 1190.5,164.5C 1172.83,164.5 1155.17,164.5 1137.5,164.5C 1135.15,162.14 1133.15,159.473 1131.5,156.5 Z"/></g>
<g><path style="opacity:0.978" fill="#5f8b5e" d="M 1216.5,156.5 C 1231.5,156.5 1246.5,156.5 1261.5,156.5C 1261.5,159.167 1261.5,161.833 1261.5,164.5C 1246.5,164.5 1231.5,164.5 1216.5,164.5C 1216.5,161.833 1216.5,159.167 1216.5,156.5 Z"/></g>
<g><path style="opacity:0.849" fill="#5c8a5d" d="M 794.5,164.5 C 849.5,164.5 904.5,164.5 959.5,164.5C 919.5,165.167 879.5,165.833 839.5,166.5C 824.5,166.5 809.5,166.5 794.5,166.5C 794.5,165.833 794.5,165.167 794.5,164.5 Z"/></g>
<g><path style="opacity:0.978" fill="#5c8a5d" d="M 1042.5,164.5 C 1057.5,164.5 1072.5,164.5 1087.5,164.5C 1087.5,165.167 1087.5,165.833 1087.5,166.5C 1072.5,166.5 1057.5,166.5 1042.5,166.5C 1042.5,165.833 1042.5,165.167 1042.5,164.5 Z"/></g>
<g><path style="opacity:0.98" fill="#5c8a5d" d="M 1137.5,164.5 C 1155.17,164.5 1172.83,164.5 1190.5,164.5C 1191.34,164.842 1191.67,165.508 1191.5,166.5C 1173.83,166.5 1156.17,166.5 1138.5,166.5C 1137.66,166.158 1137.33,165.492 1137.5,164.5 Z"/></g>
<g><path style="opacity:0.978" fill="#5c8a5d" d="M 1216.5,164.5 C 1231.5,164.5 1246.5,164.5 1261.5,164.5C 1261.5,165.167 1261.5,165.833 1261.5,166.5C 1246.5,166.5 1231.5,166.5 1216.5,166.5C 1216.5,165.833 1216.5,165.167 1216.5,164.5 Z"/></g>
<g><path style="opacity:0.978" fill="#5a885e" d="M 794.5,166.5 C 809.5,166.5 824.5,166.5 839.5,166.5C 839.5,170.5 839.5,174.5 839.5,178.5C 824.5,178.5 809.5,178.5 794.5,178.5C 794.5,174.5 794.5,170.5 794.5,166.5 Z"/></g>
<g><path style="opacity:0.978" fill="#5a885e" d="M 1042.5,166.5 C 1057.5,166.5 1072.5,166.5 1087.5,166.5C 1087.5,170.5 1087.5,174.5 1087.5,178.5C 1072.5,178.5 1057.5,178.5 1042.5,178.5C 1042.5,174.5 1042.5,170.5 1042.5,166.5 Z"/></g>
<g><path style="opacity:0.98" fill="#5a885e" d="M 1138.5,166.5 C 1156.17,166.5 1173.83,166.5 1191.5,166.5C 1194.66,170.148 1197.33,174.148 1199.5,178.5C 1181.83,178.5 1164.17,178.5 1146.5,178.5C 1143.47,174.795 1140.81,170.795 1138.5,166.5 Z"/></g>
<g><path style="opacity:0.978" fill="#5a885e" d="M 1216.5,166.5 C 1231.5,166.5 1246.5,166.5 1261.5,166.5C 1261.5,170.5 1261.5,174.5 1261.5,178.5C 1246.5,178.5 1231.5,178.5 1216.5,178.5C 1216.5,174.5 1216.5,170.5 1216.5,166.5 Z"/></g>
<g><path style="opacity:0.978" fill="#54855e" d="M 794.5,178.5 C 809.5,178.5 824.5,178.5 839.5,178.5C 839.5,182.167 839.5,185.833 839.5,189.5C 824.5,189.5 809.5,189.5 794.5,189.5C 794.5,185.833 794.5,182.167 794.5,178.5 Z"/></g>
<g><path style="opacity:0.978" fill="#54855e" d="M 1042.5,178.5 C 1057.5,178.5 1072.5,178.5 1087.5,178.5C 1087.5,182.167 1087.5,185.833 1087.5,189.5C 1072.5,189.5 1057.5,189.5 1042.5,189.5C 1042.5,185.833 1042.5,182.167 1042.5,178.5 Z"/></g>
<g><path style="opacity:0.975" fill="#54855e" d="M 1146.5,178.5 C 1164.17,178.5 1181.83,178.5 1199.5,178.5C 1202.4,181.952 1205.07,185.618 1207.5,189.5C 1189.5,189.5 1171.5,189.5 1153.5,189.5C 1150.81,186.124 1148.47,182.457 1146.5,178.5 Z"/></g>
<g><path style="opacity:0.978" fill="#54855e" d="M 1216.5,178.5 C 1231.5,178.5 1246.5,178.5 1261.5,178.5C 1261.5,182.167 1261.5,185.833 1261.5,189.5C 1246.5,189.5 1231.5,189.5 1216.5,189.5C 1216.5,185.833 1216.5,182.167 1216.5,178.5 Z"/></g>
<g><path style="opacity:0.978" fill="#50845e" d="M 794.5,189.5 C 809.5,189.5 824.5,189.5 839.5,189.5C 839.5,190.833 839.5,192.167 839.5,193.5C 824.5,193.5 809.5,193.5 794.5,193.5C 794.5,192.167 794.5,190.833 794.5,189.5 Z"/></g>
<g><path style="opacity:0.978" fill="#50845e" d="M 1042.5,189.5 C 1057.5,189.5 1072.5,189.5 1087.5,189.5C 1087.5,190.833 1087.5,192.167 1087.5,193.5C 1072.5,193.5 1057.5,193.5 1042.5,193.5C 1042.5,192.167 1042.5,190.833 1042.5,189.5 Z"/></g>
<g><path style="opacity:0.975" fill="#50845e" d="M 1153.5,189.5 C 1171.5,189.5 1189.5,189.5 1207.5,189.5C 1208.6,190.605 1209.27,191.938 1209.5,193.5C 1191.83,193.5 1174.17,193.5 1156.5,193.5C 1155.03,192.564 1154.03,191.23 1153.5,189.5 Z"/></g>
<g><path style="opacity:0.978" fill="#50845e" d="M 1216.5,189.5 C 1231.5,189.5 1246.5,189.5 1261.5,189.5C 1261.5,190.833 1261.5,192.167 1261.5,193.5C 1246.5,193.5 1231.5,193.5 1216.5,193.5C 1216.5,192.167 1216.5,190.833 1216.5,189.5 Z"/></g>
<g><path style="opacity:0.978" fill="#4c825f" d="M 794.5,193.5 C 809.5,193.5 824.5,193.5 839.5,193.5C 839.5,196.5 839.5,199.5 839.5,202.5C 824.5,202.5 809.5,202.5 794.5,202.5C 794.5,199.5 794.5,196.5 794.5,193.5 Z"/></g>
<g><path style="opacity:0.978" fill="#4c825f" d="M 1042.5,193.5 C 1057.5,193.5 1072.5,193.5 1087.5,193.5C 1087.5,196.5 1087.5,199.5 1087.5,202.5C 1072.5,202.5 1057.5,202.5 1042.5,202.5C 1042.5,199.5 1042.5,196.5 1042.5,193.5 Z"/></g>
<g><path style="opacity:0.976" fill="#4c825f" d="M 1156.5,193.5 C 1174.17,193.5 1191.83,193.5 1209.5,193.5C 1212.23,195.946 1214.23,198.946 1215.5,202.5C 1197.83,202.5 1180.17,202.5 1162.5,202.5C 1159.76,200.025 1157.76,197.025 1156.5,193.5 Z"/></g>
<g><path style="opacity:0.978" fill="#4c825f" d="M 1216.5,193.5 C 1231.5,193.5 1246.5,193.5 1261.5,193.5C 1261.5,196.5 1261.5,199.5 1261.5,202.5C 1246.5,202.5 1231.5,202.5 1216.5,202.5C 1216.5,199.5 1216.5,196.5 1216.5,193.5 Z"/></g>
<g><path style="opacity:0.978" fill="#477f5f" d="M 794.5,202.5 C 809.5,202.5 824.5,202.5 839.5,202.5C 839.5,206.5 839.5,210.5 839.5,214.5C 824.5,214.5 809.5,214.5 794.5,214.5C 794.5,210.5 794.5,206.5 794.5,202.5 Z"/></g>
<g><path style="opacity:0.978" fill="#477f5f" d="M 1042.5,202.5 C 1057.5,202.5 1072.5,202.5 1087.5,202.5C 1087.5,206.5 1087.5,210.5 1087.5,214.5C 1072.5,214.5 1057.5,214.5 1042.5,214.5C 1042.5,210.5 1042.5,206.5 1042.5,202.5 Z"/></g>
<g><path style="opacity:0.985" fill="#47805f" d="M 1162.5,202.5 C 1180.17,202.5 1197.83,202.5 1215.5,202.5C 1215.83,202.5 1216.17,202.5 1216.5,202.5C 1231.5,202.5 1246.5,202.5 1261.5,202.5C 1261.5,206.5 1261.5,210.5 1261.5,214.5C 1231.17,214.5 1200.83,214.5 1170.5,214.5C 1167.34,210.852 1164.67,206.852 1162.5,202.5 Z"/></g>
<g><path style="opacity:0.978" fill="#417d5f" d="M 794.5,214.5 C 809.5,214.5 824.5,214.5 839.5,214.5C 839.5,217.5 839.5,220.5 839.5,223.5C 824.5,223.5 809.5,223.5 794.5,223.5C 794.5,220.5 794.5,217.5 794.5,214.5 Z"/></g>
<g><path style="opacity:0.978" fill="#417d5f" d="M 1042.5,214.5 C 1057.5,214.5 1072.5,214.5 1087.5,214.5C 1087.5,217.5 1087.5,220.5 1087.5,223.5C 1072.5,223.5 1057.5,223.5 1042.5,223.5C 1042.5,220.5 1042.5,217.5 1042.5,214.5 Z"/></g>
<g><path style="opacity:0.984" fill="#417d5f" d="M 1170.5,214.5 C 1200.83,214.5 1231.17,214.5 1261.5,214.5C 1261.5,217.5 1261.5,220.5 1261.5,223.5C 1232.83,223.5 1204.17,223.5 1175.5,223.5C 1173.4,220.738 1171.74,217.738 1170.5,214.5 Z"/></g>
<g><path style="opacity:0.978" fill="#3b7b5f" d="M 794.5,223.5 C 809.5,223.5 824.5,223.5 839.5,223.5C 839.5,226.5 839.5,229.5 839.5,232.5C 824.5,232.5 809.5,232.5 794.5,232.5C 794.5,229.5 794.5,226.5 794.5,223.5 Z"/></g>
<g><path style="opacity:0.978" fill="#3b7b5f" d="M 1042.5,223.5 C 1057.5,223.5 1072.5,223.5 1087.5,223.5C 1087.5,226.5 1087.5,229.5 1087.5,232.5C 1072.5,232.5 1057.5,232.5 1042.5,232.5C 1042.5,229.5 1042.5,226.5 1042.5,223.5 Z"/></g>
<g><path style="opacity:0.983" fill="#3b7b5f" d="M 1175.5,223.5 C 1204.17,223.5 1232.83,223.5 1261.5,223.5C 1261.5,226.5 1261.5,229.5 1261.5,232.5C 1234.83,232.5 1208.17,232.5 1181.5,232.5C 1179.5,229.5 1177.5,226.5 1175.5,223.5 Z"/></g>
<g><path style="opacity:0.978" fill="#35795f" d="M 794.5,232.5 C 809.5,232.5 824.5,232.5 839.5,232.5C 839.5,235.833 839.5,239.167 839.5,242.5C 824.5,242.5 809.5,242.5 794.5,242.5C 794.5,239.167 794.5,235.833 794.5,232.5 Z"/></g>
<g><path style="opacity:0.978" fill="#35795f" d="M 1042.5,232.5 C 1057.5,232.5 1072.5,232.5 1087.5,232.5C 1087.5,235.833 1087.5,239.167 1087.5,242.5C 1072.5,242.5 1057.5,242.5 1042.5,242.5C 1042.5,239.167 1042.5,235.833 1042.5,232.5 Z"/></g>
<g><path style="opacity:0.982" fill="#35795f" d="M 1181.5,232.5 C 1208.17,232.5 1234.83,232.5 1261.5,232.5C 1261.5,235.833 1261.5,239.167 1261.5,242.5C 1237.17,242.5 1212.83,242.5 1188.5,242.5C 1186.18,239.204 1183.85,235.871 1181.5,232.5 Z"/></g>
<g><path style="opacity:0.978" fill="#2e775f" d="M 794.5,242.5 C 809.5,242.5 824.5,242.5 839.5,242.5C 839.5,245.167 839.5,247.833 839.5,250.5C 824.5,250.5 809.5,250.5 794.5,250.5C 794.5,247.833 794.5,245.167 794.5,242.5 Z"/></g>
<g><path style="opacity:0.978" fill="#2e775f" d="M 1042.5,242.5 C 1057.5,242.5 1072.5,242.5 1087.5,242.5C 1087.5,245.167 1087.5,247.833 1087.5,250.5C 1072.5,250.5 1057.5,250.5 1042.5,250.5C 1042.5,247.833 1042.5,245.167 1042.5,242.5 Z"/></g>
<g><path style="opacity:0.981" fill="#2e775f" d="M 1188.5,242.5 C 1212.83,242.5 1237.17,242.5 1261.5,242.5C 1261.5,245.167 1261.5,247.833 1261.5,250.5C 1238.83,250.5 1216.17,250.5 1193.5,250.5C 1191.85,247.869 1190.18,245.203 1188.5,242.5 Z"/></g>
<g><path style="opacity:0.916" fill="#29755f" d="M 794.5,250.5 C 809.5,250.5 824.5,250.5 839.5,250.5C 886.167,250.5 932.833,250.5 979.5,250.5C 979.5,252.833 979.5,255.167 979.5,257.5C 917.833,257.5 856.167,257.5 794.5,257.5C 794.5,255.167 794.5,252.833 794.5,250.5 Z"/></g>
<g><path style="opacity:0.978" fill="#29755f" d="M 1042.5,250.5 C 1057.5,250.5 1072.5,250.5 1087.5,250.5C 1087.5,252.833 1087.5,255.167 1087.5,257.5C 1072.5,257.5 1057.5,257.5 1042.5,257.5C 1042.5,255.167 1042.5,252.833 1042.5,250.5 Z"/></g>
<g><path style="opacity:0.977" fill="#29755f" d="M 1193.5,250.5 C 1216.17,250.5 1238.83,250.5 1261.5,250.5C 1261.5,252.833 1261.5,255.167 1261.5,257.5C 1240.5,257.5 1219.5,257.5 1198.5,257.5C 1196.48,255.469 1194.81,253.135 1193.5,250.5 Z"/></g>
<g><path style="opacity:0.997" fill="#22735e" d="M 794.5,257.5 C 856.167,257.5 917.833,257.5 979.5,257.5C 979.5,260.5 979.5,263.5 979.5,266.5C 917.833,266.5 856.167,266.5 794.5,266.5C 794.5,263.5 794.5,260.5 794.5,257.5 Z"/></g>
<g><path style="opacity:0.978" fill="#22735e" d="M 1042.5,257.5 C 1057.5,257.5 1072.5,257.5 1087.5,257.5C 1087.5,260.5 1087.5,263.5 1087.5,266.5C 1072.5,266.5 1057.5,266.5 1042.5,266.5C 1042.5,263.5 1042.5,260.5 1042.5,257.5 Z"/></g>
<g><path style="opacity:0.977" fill="#22745e" d="M 1198.5,257.5 C 1219.5,257.5 1240.5,257.5 1261.5,257.5C 1261.5,260.5 1261.5,263.5 1261.5,266.5C 1242.5,266.5 1223.5,266.5 1204.5,266.5C 1201.76,264.025 1199.76,261.025 1198.5,257.5 Z"/></g>
<g><path style="opacity:0.997" fill="#1b715e" d="M 794.5,266.5 C 856.167,266.5 917.833,266.5 979.5,266.5C 979.5,269.5 979.5,272.5 979.5,275.5C 917.833,275.5 856.167,275.5 794.5,275.5C 794.5,272.5 794.5,269.5 794.5,266.5 Z"/></g>
<g><path style="opacity:0.978" fill="#1b715e" d="M 1042.5,266.5 C 1057.5,266.5 1072.5,266.5 1087.5,266.5C 1087.5,269.5 1087.5,272.5 1087.5,275.5C 1072.5,275.5 1057.5,275.5 1042.5,275.5C 1042.5,272.5 1042.5,269.5 1042.5,266.5 Z"/></g>
<g><path style="opacity:0.976" fill="#1b725e" d="M 1204.5,266.5 C 1223.5,266.5 1242.5,266.5 1261.5,266.5C 1261.5,269.5 1261.5,272.5 1261.5,275.5C 1244.5,275.5 1227.5,275.5 1210.5,275.5C 1207.76,273.025 1205.76,270.025 1204.5,266.5 Z"/></g>
<g><path style="opacity:0.997" fill="#17715d" d="M 794.5,275.5 C 856.167,275.5 917.833,275.5 979.5,275.5C 979.5,276.167 979.5,276.833 979.5,277.5C 917.833,277.5 856.167,277.5 794.5,277.5C 794.5,276.833 794.5,276.167 794.5,275.5 Z"/></g>
<g><path style="opacity:0.978" fill="#17715d" d="M 1042.5,275.5 C 1057.5,275.5 1072.5,275.5 1087.5,275.5C 1087.5,276.167 1087.5,276.833 1087.5,277.5C 1072.5,277.5 1057.5,277.5 1042.5,277.5C 1042.5,276.833 1042.5,276.167 1042.5,275.5 Z"/></g>
<g><path style="opacity:0.976" fill="#17715d" d="M 1210.5,275.5 C 1227.5,275.5 1244.5,275.5 1261.5,275.5C 1261.5,276.167 1261.5,276.833 1261.5,277.5C 1244.83,277.5 1228.17,277.5 1211.5,277.5C 1210.66,277.158 1210.33,276.492 1210.5,275.5 Z"/></g>
<g><path style="opacity:0.997" fill="#14705d" d="M 794.5,277.5 C 856.167,277.5 917.833,277.5 979.5,277.5C 979.5,279.167 979.5,280.833 979.5,282.5C 917.833,282.5 856.167,282.5 794.5,282.5C 794.5,280.833 794.5,279.167 794.5,277.5 Z"/></g>
<g><path style="opacity:0.978" fill="#14705d" d="M 1042.5,277.5 C 1057.5,277.5 1072.5,277.5 1087.5,277.5C 1087.5,279.167 1087.5,280.833 1087.5,282.5C 1072.5,282.5 1057.5,282.5 1042.5,282.5C 1042.5,280.833 1042.5,279.167 1042.5,277.5 Z"/></g>
<g><path style="opacity:0.976" fill="#14705d" d="M 1211.5,277.5 C 1228.17,277.5 1244.83,277.5 1261.5,277.5C 1261.5,279.167 1261.5,280.833 1261.5,282.5C 1245.83,282.5 1230.17,282.5 1214.5,282.5C 1213.25,280.999 1212.25,279.332 1211.5,277.5 Z"/></g>
<g><path style="opacity:0.914" fill="#0f6e5e" d="M 794.5,282.5 C 856.167,282.5 917.833,282.5 979.5,282.5C 979.5,285.5 979.5,288.5 979.5,291.5C 917.833,291.5 856.167,291.5 794.5,291.5C 794.5,288.5 794.5,285.5 794.5,282.5 Z"/></g>
<g><path style="opacity:0.896" fill="#0f6e5e" d="M 1042.5,282.5 C 1057.5,282.5 1072.5,282.5 1087.5,282.5C 1087.5,285.5 1087.5,288.5 1087.5,291.5C 1072.5,291.5 1057.5,291.5 1042.5,291.5C 1042.5,288.5 1042.5,285.5 1042.5,282.5 Z"/></g>
<g><path style="opacity:0.891" fill="#0f6e5e" d="M 1214.5,282.5 C 1230.17,282.5 1245.83,282.5 1261.5,282.5C 1261.5,285.5 1261.5,288.5 1261.5,291.5C 1247.48,291.833 1233.48,291.499 1219.5,290.5C 1217.81,287.816 1216.14,285.149 1214.5,282.5 Z"/></g>
</svg>
