<?xml version="1.0" encoding="UTF-8"?>
<!DOCTYPE svg PUBLIC "-//W3C//DTD SVG 1.1//EN" "http://www.w3.org/Graphics/SVG/1.1/DTD/svg11.dtd">
<svg xmlns="http://www.w3.org/2000/svg" version="1.1" width="2317px" height="423px" style="shape-rendering:geometricPrecision; text-rendering:geometricPrecision; image-rendering:optimizeQuality; fill-rule:evenodd; clip-rule:evenodd" xmlns:xlink="http://www.w3.org/1999/xlink">
<g><path style="opacity:0.975" fill="#fefffe" d="M 92.5,-0.5 C 103.833,-0.5 115.167,-0.5 126.5,-0.5C 176.957,8.62565 206.29,38.6257 214.5,89.5C 199.5,89.5 184.5,89.5 169.5,89.5C 160.668,53.4055 137.668,36.9055 100.5,40C 70.4089,45.635 54.2423,63.8016 52,94.5C 50.0083,128.835 50.0083,163.168 52,197.5C 55.5295,232.196 74.6961,250.863 109.5,253.5C 140.931,252.233 160.764,236.566 169,206.5C 170.326,195.21 170.826,183.877 170.5,172.5C 150.167,172.5 129.833,172.5 109.5,172.5C 109.5,159.5 109.5,146.5 109.5,133.5C 144.833,133.5 180.167,133.5 215.5,133.5C 215.667,153.503 215.5,173.503 215,193.5C 211.84,245.652 185.006,278.152 134.5,291C 100.425,297.938 69.4247,291.272 41.5,271C 20.0258,252.885 8.52585,229.718 7,201.5C 5.44601,169.185 5.11267,136.851 6,104.5C 5.38581,59.1919 25.2191,26.6919 65.5,7C 74.4134,3.69181 83.4134,1.19181 92.5,-0.5 Z"/></g>
<g><path style="opacity:0.976" fill="#fefffe" d="M 1422.5,-0.5 C 1433.83,-0.5 1445.17,-0.5 1456.5,-0.5C 1506.84,8.7756 1536.17,38.7756 1544.5,89.5C 1529.5,89.5 1514.5,89.5 1499.5,89.5C 1489.33,50.7321 1464.33,34.5654 1424.5,41C 1405.85,45.5611 1393.02,56.7278 1386,74.5C 1383.12,84.2957 1381.46,94.2957 1381,104.5C 1379.08,135.854 1379.42,167.187 1382,198.5C 1385.99,232.655 1405.16,250.989 1439.5,253.5C 1474.84,251.657 1495,233.323 1500,198.5C 1500.5,189.84 1500.67,181.173 1500.5,172.5C 1479.83,172.5 1459.17,172.5 1438.5,172.5C 1438.5,159.5 1438.5,146.5 1438.5,133.5C 1474.17,133.5 1509.83,133.5 1545.5,133.5C 1545.67,153.169 1545.5,172.836 1545,192.5C 1542.37,245.126 1515.54,277.96 1464.5,291C 1430.4,297.982 1399.4,291.315 1371.5,271C 1350.32,253.14 1338.82,230.306 1337,202.5C 1335.43,169.185 1335.1,135.852 1336,102.5C 1335.73,57.8278 1355.56,25.9945 1395.5,7C 1404.41,3.69181 1413.41,1.19181 1422.5,-0.5 Z"/></g>
<g><path style="opacity:0.976" fill="#fefffe" d="M 1938.5,-0.5 C 1949.83,-0.5 1961.17,-0.5 1972.5,-0.5C 2022.97,8.63879 2052.3,38.6388 2060.5,89.5C 2045.5,89.5 2030.5,89.5 2015.5,89.5C 2009.94,61.7721 1993.27,45.2721 1965.5,40C 1936.95,36.5215 1916.12,47.3549 1903,72.5C 1900.57,79.9989 1898.9,87.6656 1898,95.5C 1896,129.167 1896,162.833 1898,196.5C 1901.09,231.757 1920.26,250.757 1955.5,253.5C 1981.82,252.939 2000.66,240.939 2012,217.5C 2013.2,214.226 2014.2,210.893 2015,207.5C 2016.36,195.881 2016.86,184.214 2016.5,172.5C 1996.17,172.5 1975.83,172.5 1955.5,172.5C 1955.5,159.5 1955.5,146.5 1955.5,133.5C 1990.83,133.5 2026.17,133.5 2061.5,133.5C 2061.67,154.503 2061.5,175.503 2061,196.5C 2057.2,244.963 2032.03,276.13 1985.5,290C 1951.76,298.036 1920.43,292.703 1891.5,274C 1867.46,255.092 1854.63,230.259 1853,199.5C 1851.46,168.851 1851.13,138.184 1852,107.5C 1852.04,47.9959 1880.88,11.9959 1938.5,-0.5 Z"/></g>
<g><path style="opacity:0.98" fill="#fefffe" d="M 282.5,1.5 C 324.168,1.33334 365.835,1.50001 407.5,2C 460.536,10.0367 486.37,40.87 485,94.5C 480.826,129.52 461.993,152.52 428.5,163.5C 450.117,205.903 472.117,248.069 494.5,290C 476.824,290.833 459.157,290.666 441.5,289.5C 421.628,249.589 401.628,209.756 381.5,170C 363.503,169.5 345.503,169.333 327.5,169.5C 327.5,209.833 327.5,250.167 327.5,290.5C 312.5,290.5 297.5,290.5 282.5,290.5C 282.5,194.167 282.5,97.8333 282.5,1.5 Z M 327.5,41.5 C 350.836,41.3334 374.169,41.5 397.5,42C 430.125,46.9657 443.958,65.799 439,98.5C 435.868,112.3 427.702,121.8 414.5,127C 408.36,129.228 402.026,130.561 395.5,131C 372.836,131.5 350.169,131.667 327.5,131.5C 327.5,101.5 327.5,71.5 327.5,41.5 Z"/></g>
<g><path style="opacity:0.984" fill="#fefffe" d="M 552.5,1.5 C 614.167,1.5 675.833,1.5 737.5,1.5C 737.5,14.8333 737.5,28.1667 737.5,41.5C 690.833,41.5 644.167,41.5 597.5,41.5C 597.5,69.5 597.5,97.5 597.5,125.5C 637.5,125.5 677.5,125.5 717.5,125.5C 717.5,138.833 717.5,152.167 717.5,165.5C 677.5,165.5 637.5,165.5 597.5,165.5C 597.5,193.833 597.5,222.167 597.5,250.5C 644.167,250.5 690.833,250.5 737.5,250.5C 737.5,263.833 737.5,277.167 737.5,290.5C 675.833,290.5 614.167,290.5 552.5,290.5C 552.5,194.167 552.5,97.8333 552.5,1.5 Z"/></g>
<g><path style="opacity:0.984" fill="#fefffe" d="M 800.5,1.5 C 862.5,1.5 924.5,1.5 986.5,1.5C 986.5,14.8333 986.5,28.1667 986.5,41.5C 939.5,41.5 892.5,41.5 845.5,41.5C 845.5,69.5 845.5,97.5 845.5,125.5C 885.5,125.5 925.5,125.5 965.5,125.5C 965.5,138.833 965.5,152.167 965.5,165.5C 925.5,165.5 885.5,165.5 845.5,165.5C 845.5,193.833 845.5,222.167 845.5,250.5C 892.5,250.5 939.5,250.5 986.5,250.5C 986.5,263.833 986.5,277.167 986.5,290.5C 924.5,290.5 862.5,290.5 800.5,290.5C 800.5,194.167 800.5,97.8333 800.5,1.5 Z"/></g>
<g><path style="opacity:0.986" fill="#fefffe" d="M 1049.5,1.5 C 1063.41,1.17674 1077.25,1.51007 1091,2.5C 1134.67,69.1667 1178.33,135.833 1222,202.5C 1222.5,135.501 1222.67,68.5008 1222.5,1.5C 1237.5,1.5 1252.5,1.5 1267.5,1.5C 1267.5,97.8333 1267.5,194.167 1267.5,290.5C 1253.25,290.824 1239.09,290.49 1225,289.5C 1181.33,222.833 1137.67,156.167 1094,89.5C 1093.5,156.499 1093.33,223.499 1093.5,290.5C 1078.83,290.5 1064.17,290.5 1049.5,290.5C 1049.5,194.167 1049.5,97.8333 1049.5,1.5 Z"/></g>
<g><path style="opacity:0.981" fill="#fefffe" d="M 1679.5,1.5 C 1692.25,0.864922 1704.75,1.53159 1717,3.5C 1752.04,99.0693 1787.2,194.569 1822.5,290C 1806.5,290.667 1790.5,290.667 1774.5,290C 1767.74,271.221 1761.07,252.388 1754.5,233.5C 1716.84,232.5 1679.17,232.167 1641.5,232.5C 1635.17,251.833 1628.83,271.167 1622.5,290.5C 1606.5,290.5 1590.5,290.5 1574.5,290.5C 1609.7,194.243 1644.7,97.9098 1679.5,1.5 Z M 1697.5,69.5 C 1712.33,110.659 1727,151.993 1741.5,193.5C 1712.51,194.667 1683.51,194.833 1654.5,194C 1669.13,152.605 1683.46,111.105 1697.5,69.5 Z"/></g>
<g><path style="opacity:0.991" fill="#fefffe" d="M 2129.5,1.5 C 2191.17,1.5 2252.83,1.5 2314.5,1.5C 2314.5,14.8333 2314.5,28.1667 2314.5,41.5C 2267.5,41.5 2220.5,41.5 2173.5,41.5C 2173.5,69.5 2173.5,97.5 2173.5,125.5C 2213.5,125.5 2253.5,125.5 2293.5,125.5C 2293.5,138.833 2293.5,152.167 2293.5,165.5C 2253.5,165.5 2213.5,165.5 2173.5,165.5C 2173.5,193.833 2173.5,222.167 2173.5,250.5C 2220.5,250.5 2267.5,250.5 2314.5,250.5C 2314.5,263.833 2314.5,277.167 2314.5,290.5C 2252.83,290.5 2191.17,290.5 2129.5,290.5C 2129.5,194.167 2129.5,97.8333 2129.5,1.5 Z"/></g>
<g><path style="opacity:0.92" fill="#fefffe" d="M 5.5,355.5 C 15.8333,355.5 26.1667,355.5 36.5,355.5C 36.5,357.833 36.5,360.167 36.5,362.5C 28.8333,362.5 21.1667,362.5 13.5,362.5C 13.5,367.167 13.5,371.833 13.5,376.5C 19.8333,376.5 26.1667,376.5 32.5,376.5C 32.5,378.833 32.5,381.167 32.5,383.5C 26.1667,383.5 19.8333,383.5 13.5,383.5C 13.5,387.833 13.5,392.167 13.5,396.5C 21.1667,396.5 28.8333,396.5 36.5,396.5C 36.5,398.833 36.5,401.167 36.5,403.5C 26.1667,403.5 15.8333,403.5 5.5,403.5C 5.5,387.5 5.5,371.5 5.5,355.5 Z"/></g>
<g><path style="opacity:0.918" fill="#fefffe" d="M 45.5,355.5 C 48.2469,355.187 50.9135,355.52 53.5,356.5C 59.8032,366.635 66.3032,376.635 73,386.5C 73.4998,376.172 73.6665,365.839 73.5,355.5C 76.1667,355.5 78.8333,355.5 81.5,355.5C 81.5,371.5 81.5,387.5 81.5,403.5C 78.7531,403.813 76.0865,403.48 73.5,402.5C 67.1968,392.365 60.6968,382.365 54,372.5C 53.5002,382.828 53.3335,393.161 53.5,403.5C 50.8333,403.5 48.1667,403.5 45.5,403.5C 45.5,387.5 45.5,371.5 45.5,355.5 Z"/></g>
<g><path style="opacity:0.896" fill="#fefffe" d="M 103.5,355.5 C 116.084,353.276 123.751,358.276 126.5,370.5C 123.753,370.813 121.086,370.48 118.5,369.5C 116.048,363.607 111.715,361.441 105.5,363C 103.667,364.167 102.167,365.667 101,367.5C 99.6446,373.785 99.3113,380.118 100,386.5C 101.825,396.659 107.325,399.159 116.5,394C 118.227,391.096 118.893,387.93 118.5,384.5C 115.167,384.5 111.833,384.5 108.5,384.5C 108.5,382.5 108.5,380.5 108.5,378.5C 114.5,378.5 120.5,378.5 126.5,378.5C 129.543,396.953 121.876,405.12 103.5,403C 98.4268,401.594 94.9268,398.428 93,393.5C 90.6074,382.61 91.2741,371.943 95,361.5C 97.3218,358.605 100.155,356.605 103.5,355.5 Z"/></g>
<g><path style="opacity:0.902" fill="#fefffe" d="M 146.5,355.5 C 149.119,355.232 151.619,355.565 154,356.5C 159.807,372.089 165.307,387.755 170.5,403.5C 167.813,403.664 165.146,403.497 162.5,403C 160.998,399.995 159.998,396.829 159.5,393.5C 153.491,393.334 147.491,393.501 141.5,394C 139.998,397.005 138.998,400.171 138.5,403.5C 135.482,403.665 132.482,403.498 129.5,403C 135.31,387.214 140.977,371.381 146.5,355.5 Z M 149.5,368.5 C 152.798,374.385 155.131,380.718 156.5,387.5C 152.116,387.826 147.783,387.492 143.5,386.5C 146.105,380.686 148.105,374.686 149.5,368.5 Z"/></g>
<g><path style="opacity:0.896" fill="#fefffe" d="M 186.5,355.5 C 199.084,353.276 206.751,358.276 209.5,370.5C 206.753,370.813 204.086,370.48 201.5,369.5C 199.048,363.607 194.715,361.441 188.5,363C 186.667,364.167 185.167,365.667 184,367.5C 182.645,373.785 182.311,380.118 183,386.5C 184.825,396.659 190.325,399.159 199.5,394C 201.227,391.096 201.893,387.93 201.5,384.5C 198.167,384.5 194.833,384.5 191.5,384.5C 191.5,382.5 191.5,380.5 191.5,378.5C 197.5,378.5 203.5,378.5 209.5,378.5C 212.543,396.953 204.876,405.12 186.5,403C 181.427,401.594 177.927,398.428 176,393.5C 173.607,382.61 174.274,371.943 178,361.5C 180.322,358.605 183.155,356.605 186.5,355.5 Z"/></g>
<g><path style="opacity:0.908" fill="#fefffe" d="M 219.5,355.5 C 222.167,355.5 224.833,355.5 227.5,355.5C 227.5,371.5 227.5,387.5 227.5,403.5C 224.833,403.5 222.167,403.5 219.5,403.5C 219.5,387.5 219.5,371.5 219.5,355.5 Z"/></g>
<g><path style="opacity:0.918" fill="#fefffe" d="M 239.5,355.5 C 242.247,355.187 244.914,355.52 247.5,356.5C 253.803,366.635 260.303,376.635 267,386.5C 267.5,376.172 267.666,365.839 267.5,355.5C 270.167,355.5 272.833,355.5 275.5,355.5C 275.5,371.5 275.5,387.5 275.5,403.5C 272.753,403.813 270.086,403.48 267.5,402.5C 261.197,392.365 254.697,382.365 248,372.5C 247.5,382.828 247.334,393.161 247.5,403.5C 244.833,403.5 242.167,403.5 239.5,403.5C 239.5,387.5 239.5,371.5 239.5,355.5 Z"/></g>
<g><path style="opacity:0.896" fill="#fefffe" d="M 296.5,355.5 C 309.084,353.276 316.751,358.276 319.5,370.5C 316.753,370.813 314.086,370.48 311.5,369.5C 309.048,363.607 304.715,361.441 298.5,363C 296.667,364.167 295.167,365.667 294,367.5C 292.645,373.785 292.311,380.118 293,386.5C 294.825,396.659 300.325,399.159 309.5,394C 311.227,391.096 311.893,387.93 311.5,384.5C 308.167,384.5 304.833,384.5 301.5,384.5C 301.5,382.5 301.5,380.5 301.5,378.5C 307.5,378.5 313.5,378.5 319.5,378.5C 322.543,396.953 314.876,405.12 296.5,403C 291.427,401.594 287.927,398.428 286,393.5C 283.607,382.61 284.274,371.943 288,361.5C 290.322,358.605 293.155,356.605 296.5,355.5 Z"/></g>
<g><path style="opacity:0.884" fill="#fefffe" d="M 355.5,355.5 C 368.084,353.276 375.751,358.276 378.5,370.5C 375.813,370.664 373.146,370.497 370.5,370C 368.334,363.749 364.001,361.416 357.5,363C 352.892,367.645 350.892,373.312 351.5,380C 351.594,383.888 352.094,387.721 353,391.5C 355.541,396.069 359.375,397.569 364.5,396C 367.167,394.667 369.167,392.667 370.5,390C 378.174,388.107 380.007,390.274 376,396.5C 368.687,404.049 360.187,405.549 350.5,401C 347.894,399.062 346.061,396.562 345,393.5C 342.607,382.61 343.274,371.943 347,361.5C 349.322,358.605 352.155,356.605 355.5,355.5 Z"/></g>
<g><path style="opacity:0.908" fill="#fefffe" d="M 387.5,355.5 C 390.167,355.5 392.833,355.5 395.5,355.5C 395.5,371.5 395.5,387.5 395.5,403.5C 392.833,403.5 390.167,403.5 387.5,403.5C 387.5,387.5 387.5,371.5 387.5,355.5 Z"/></g>
<g><path style="opacity:0.913" fill="#fefffe" d="M 403.5,355.5 C 414.833,355.5 426.167,355.5 437.5,355.5C 437.5,357.833 437.5,360.167 437.5,362.5C 433.167,362.5 428.833,362.5 424.5,362.5C 424.5,376.167 424.5,389.833 424.5,403.5C 421.833,403.5 419.167,403.5 416.5,403.5C 416.5,389.833 416.5,376.167 416.5,362.5C 412.167,362.5 407.833,362.5 403.5,362.5C 403.5,360.167 403.5,357.833 403.5,355.5 Z"/></g>
<g><path style="opacity:0.908" fill="#fefffe" d="M 444.5,355.5 C 447.167,355.5 449.833,355.5 452.5,355.5C 452.5,371.5 452.5,387.5 452.5,403.5C 449.833,403.5 447.167,403.5 444.5,403.5C 444.5,387.5 444.5,371.5 444.5,355.5 Z"/></g>
<g><path style="opacity:0.901" fill="#fefffe" d="M 461.5,355.5 C 471.5,355.5 481.5,355.5 491.5,355.5C 491.663,357.857 491.497,360.19 491,362.5C 484.167,373.5 477.333,384.5 470.5,395.5C 477.468,396.497 484.468,396.83 491.5,396.5C 491.5,398.833 491.5,401.167 491.5,403.5C 481.167,403.5 470.833,403.5 460.5,403.5C 460.089,399.537 460.922,395.87 463,392.5C 469.292,382.751 475.458,372.918 481.5,363C 474.842,362.5 468.175,362.334 461.5,362.5C 461.5,360.167 461.5,357.833 461.5,355.5 Z"/></g>
<g><path style="opacity:0.92" fill="#fefffe" d="M 500.5,355.5 C 510.833,355.5 521.167,355.5 531.5,355.5C 531.5,357.833 531.5,360.167 531.5,362.5C 523.833,362.5 516.167,362.5 508.5,362.5C 508.5,367.167 508.5,371.833 508.5,376.5C 514.833,376.5 521.167,376.5 527.5,376.5C 527.5,378.833 527.5,381.167 527.5,383.5C 521.167,383.5 514.833,383.5 508.5,383.5C 508.5,387.833 508.5,392.167 508.5,396.5C 516.167,396.5 523.833,396.5 531.5,396.5C 531.5,398.833 531.5,401.167 531.5,403.5C 521.167,403.5 510.833,403.5 500.5,403.5C 500.5,387.5 500.5,371.5 500.5,355.5 Z"/></g>
<g><path style="opacity:0.918" fill="#fefffe" d="M 540.5,355.5 C 543.247,355.187 545.914,355.52 548.5,356.5C 554.803,366.635 561.303,376.635 568,386.5C 568.5,376.172 568.666,365.839 568.5,355.5C 571.167,355.5 573.833,355.5 576.5,355.5C 576.5,371.5 576.5,387.5 576.5,403.5C 573.753,403.813 571.086,403.48 568.5,402.5C 562.197,392.365 555.697,382.365 549,372.5C 548.5,382.828 548.334,393.161 548.5,403.5C 545.833,403.5 543.167,403.5 540.5,403.5C 540.5,387.5 540.5,371.5 540.5,355.5 Z"/></g>
<g><path style="opacity:0.871" fill="#fefffe" d="M 595.5,355.5 C 600.179,355.334 604.845,355.501 609.5,356C 617.745,357.882 618.745,361.048 612.5,365.5C 607.853,362.7 602.853,361.867 597.5,363C 592.803,366.377 592.47,370.043 596.5,374C 602.695,375.038 608.695,376.704 614.5,379C 618.781,384.623 619.615,390.79 617,397.5C 614.9,400.467 612.066,402.3 608.5,403C 603.5,403.667 598.5,403.667 593.5,403C 589.865,402.184 586.865,400.35 584.5,397.5C 585.833,395.5 587.5,393.833 589.5,392.5C 594.611,396.149 600.278,397.315 606.5,396C 612.02,393.127 612.687,389.46 608.5,385C 604.302,383.493 599.968,382.493 595.5,382C 587.196,378.55 584.362,372.383 587,363.5C 589.074,359.923 591.907,357.256 595.5,355.5 Z"/></g>
<g><path style="opacity:0.915" fill="#fefffe" d="M 687.5,355.5 C 690.247,355.187 692.914,355.52 695.5,356.5C 700.016,365.531 704.516,374.531 709,383.5C 713.07,374.458 717.237,365.458 721.5,356.5C 724.086,355.52 726.753,355.187 729.5,355.5C 729.5,371.5 729.5,387.5 729.5,403.5C 726.833,403.5 724.167,403.5 721.5,403.5C 721.666,394.161 721.5,384.827 721,375.5C 717.894,381.379 715.06,387.379 712.5,393.5C 709.966,394.777 707.466,394.777 705,393.5C 702,387.5 699,381.5 696,375.5C 695.5,384.827 695.334,394.161 695.5,403.5C 692.833,403.5 690.167,403.5 687.5,403.5C 687.5,387.5 687.5,371.5 687.5,355.5 Z"/></g>
<g><path style="opacity:0.887" fill="#fefffe" d="M 750.5,355.5 C 768.064,353.73 776.064,361.73 774.5,379.5C 775.303,400.216 765.97,407.383 746.5,401C 743.894,399.062 742.061,396.562 741,393.5C 738.542,382.581 739.209,371.914 743,361.5C 745.114,358.879 747.614,356.879 750.5,355.5 Z M 753.5,362.5 C 758.635,361.426 762.468,363.093 765,367.5C 767.228,376.293 766.895,384.96 764,393.5C 761.005,396.265 757.505,397.098 753.5,396C 751.333,395.167 749.833,393.667 749,391.5C 746.772,382.707 747.105,374.04 750,365.5C 751.145,364.364 752.312,363.364 753.5,362.5 Z"/></g>
<g><path style="opacity:0.92" fill="#fefffe" d="M 784.5,355.5 C 792.507,355.334 800.507,355.5 808.5,356C 817.655,360.501 819.821,367.334 815,376.5C 814.097,377.701 812.931,378.535 811.5,379C 815.983,381.456 818.316,385.289 818.5,390.5C 818.307,396.731 815.307,400.897 809.5,403C 801.173,403.5 792.84,403.666 784.5,403.5C 784.5,387.5 784.5,371.5 784.5,355.5 Z M 792.5,362.5 C 796.846,362.334 801.179,362.501 805.5,363C 809.629,365.631 810.462,369.131 808,373.5C 807.25,374.126 806.416,374.626 805.5,375C 801.179,375.499 796.846,375.666 792.5,375.5C 792.5,371.167 792.5,366.833 792.5,362.5 Z M 792.5,382.5 C 797.599,382.175 802.599,382.675 807.5,384C 811.728,388.336 811.395,392.336 806.5,396C 801.845,396.499 797.179,396.666 792.5,396.5C 792.5,391.833 792.5,387.167 792.5,382.5 Z"/></g>
<g><path style="opacity:0.908" fill="#fefffe" d="M 828.5,355.5 C 831.167,355.5 833.833,355.5 836.5,355.5C 836.5,371.5 836.5,387.5 836.5,403.5C 833.833,403.5 831.167,403.5 828.5,403.5C 828.5,387.5 828.5,371.5 828.5,355.5 Z"/></g>
<g><path style="opacity:0.922" fill="#fefffe" d="M 847.5,355.5 C 850.167,355.5 852.833,355.5 855.5,355.5C 855.5,369.167 855.5,382.833 855.5,396.5C 862.833,396.5 870.167,396.5 877.5,396.5C 877.5,398.833 877.5,401.167 877.5,403.5C 867.5,403.5 857.5,403.5 847.5,403.5C 847.5,387.5 847.5,371.5 847.5,355.5 Z"/></g>
<g><path style="opacity:0.908" fill="#fefffe" d="M 885.5,355.5 C 888.167,355.5 890.833,355.5 893.5,355.5C 893.5,371.5 893.5,387.5 893.5,403.5C 890.833,403.5 888.167,403.5 885.5,403.5C 885.5,387.5 885.5,371.5 885.5,355.5 Z"/></g>
<g><path style="opacity:0.901" fill="#fefffe" d="M 903.5,355.5 C 913.5,355.5 923.5,355.5 933.5,355.5C 933.663,357.857 933.497,360.19 933,362.5C 926.167,373.5 919.333,384.5 912.5,395.5C 919.468,396.497 926.468,396.83 933.5,396.5C 933.5,398.833 933.5,401.167 933.5,403.5C 923.167,403.5 912.833,403.5 902.5,403.5C 902.089,399.537 902.922,395.87 905,392.5C 911.292,382.751 917.458,372.918 923.5,363C 916.842,362.5 910.175,362.334 903.5,362.5C 903.5,360.167 903.5,357.833 903.5,355.5 Z"/></g>
<g><path style="opacity:0.908" fill="#fefffe" d="M 941.5,355.5 C 944.167,355.5 946.833,355.5 949.5,355.5C 949.5,371.5 949.5,387.5 949.5,403.5C 946.833,403.5 944.167,403.5 941.5,403.5C 941.5,387.5 941.5,371.5 941.5,355.5 Z"/></g>
<g><path style="opacity:0.918" fill="#fefffe" d="M 961.5,355.5 C 964.247,355.187 966.914,355.52 969.5,356.5C 975.803,366.635 982.303,376.635 989,386.5C 989.5,376.172 989.666,365.839 989.5,355.5C 992.167,355.5 994.833,355.5 997.5,355.5C 997.5,371.5 997.5,387.5 997.5,403.5C 994.753,403.813 992.086,403.48 989.5,402.5C 983.197,392.365 976.697,382.365 970,372.5C 969.5,382.828 969.334,393.161 969.5,403.5C 966.833,403.5 964.167,403.5 961.5,403.5C 961.5,387.5 961.5,371.5 961.5,355.5 Z"/></g>
<g><path style="opacity:0.896" fill="#fefffe" d="M 1019.5,355.5 C 1032.08,353.276 1039.75,358.276 1042.5,370.5C 1039.75,370.813 1037.09,370.48 1034.5,369.5C 1032.05,363.607 1027.71,361.441 1021.5,363C 1019.67,364.167 1018.17,365.667 1017,367.5C 1015.64,373.785 1015.31,380.118 1016,386.5C 1017.82,396.659 1023.32,399.159 1032.5,394C 1034.23,391.096 1034.89,387.93 1034.5,384.5C 1031.17,384.5 1027.83,384.5 1024.5,384.5C 1024.5,382.5 1024.5,380.5 1024.5,378.5C 1030.5,378.5 1036.5,378.5 1042.5,378.5C 1045.54,396.953 1037.88,405.12 1019.5,403C 1014.43,401.594 1010.93,398.428 1009,393.5C 1006.61,382.61 1007.27,371.943 1011,361.5C 1013.32,358.605 1016.16,356.605 1019.5,355.5 Z"/></g>
<g><path style="opacity:0.913" fill="#fefffe" d="M 1063.5,355.5 C 1074.83,355.5 1086.17,355.5 1097.5,355.5C 1097.5,357.833 1097.5,360.167 1097.5,362.5C 1093.17,362.5 1088.83,362.5 1084.5,362.5C 1084.5,376.167 1084.5,389.833 1084.5,403.5C 1081.83,403.5 1079.17,403.5 1076.5,403.5C 1076.5,389.833 1076.5,376.167 1076.5,362.5C 1072.17,362.5 1067.83,362.5 1063.5,362.5C 1063.5,360.167 1063.5,357.833 1063.5,355.5 Z"/></g>
<g><path style="opacity:0.92" fill="#fefffe" d="M 1105.5,355.5 C 1115.83,355.5 1126.17,355.5 1136.5,355.5C 1136.5,357.833 1136.5,360.167 1136.5,362.5C 1128.83,362.5 1121.17,362.5 1113.5,362.5C 1113.5,367.167 1113.5,371.833 1113.5,376.5C 1119.83,376.5 1126.17,376.5 1132.5,376.5C 1132.5,378.833 1132.5,381.167 1132.5,383.5C 1126.17,383.5 1119.83,383.5 1113.5,383.5C 1113.5,387.833 1113.5,392.167 1113.5,396.5C 1121.17,396.5 1128.83,396.5 1136.5,396.5C 1136.5,398.833 1136.5,401.167 1136.5,403.5C 1126.17,403.5 1115.83,403.5 1105.5,403.5C 1105.5,387.5 1105.5,371.5 1105.5,355.5 Z"/></g>
<g><path style="opacity:0.884" fill="#fefffe" d="M 1155.5,355.5 C 1168.08,353.276 1175.75,358.276 1178.5,370.5C 1175.81,370.664 1173.15,370.497 1170.5,370C 1168.33,363.749 1164,361.416 1157.5,363C 1152.89,367.645 1150.89,373.312 1151.5,380C 1151.59,383.888 1152.09,387.721 1153,391.5C 1155.54,396.069 1159.37,397.569 1164.5,396C 1167.17,394.667 1169.17,392.667 1170.5,390C 1178.17,388.107 1180.01,390.274 1176,396.5C 1168.69,404.049 1160.19,405.549 1150.5,401C 1147.89,399.062 1146.06,396.562 1145,393.5C 1142.61,382.61 1143.27,371.943 1147,361.5C 1149.32,358.605 1152.16,356.605 1155.5,355.5 Z"/></g>
<g><path style="opacity:0.921" fill="#fefffe" d="M 1186.5,355.5 C 1189.17,355.5 1191.83,355.5 1194.5,355.5C 1194.5,362.5 1194.5,369.5 1194.5,376.5C 1200.5,376.5 1206.5,376.5 1212.5,376.5C 1212.5,369.5 1212.5,362.5 1212.5,355.5C 1215.17,355.5 1217.83,355.5 1220.5,355.5C 1220.5,371.5 1220.5,387.5 1220.5,403.5C 1217.83,403.5 1215.17,403.5 1212.5,403.5C 1212.5,396.833 1212.5,390.167 1212.5,383.5C 1206.5,383.5 1200.5,383.5 1194.5,383.5C 1194.5,390.167 1194.5,396.833 1194.5,403.5C 1191.83,403.5 1189.17,403.5 1186.5,403.5C 1186.5,387.5 1186.5,371.5 1186.5,355.5 Z"/></g>
<g><path style="opacity:0.918" fill="#fefffe" d="M 1232.5,355.5 C 1235.25,355.187 1237.91,355.52 1240.5,356.5C 1246.8,366.635 1253.3,376.635 1260,386.5C 1260.5,376.172 1260.67,365.839 1260.5,355.5C 1263.17,355.5 1265.83,355.5 1268.5,355.5C 1268.5,371.5 1268.5,387.5 1268.5,403.5C 1265.75,403.813 1263.09,403.48 1260.5,402.5C 1254.2,392.365 1247.7,382.365 1241,372.5C 1240.5,382.828 1240.33,393.161 1240.5,403.5C 1237.83,403.5 1235.17,403.5 1232.5,403.5C 1232.5,387.5 1232.5,371.5 1232.5,355.5 Z"/></g>
<g><path style="opacity:0.887" fill="#fefffe" d="M 1289.5,355.5 C 1307.06,353.73 1315.06,361.73 1313.5,379.5C 1314.3,400.216 1304.97,407.383 1285.5,401C 1282.89,399.062 1281.06,396.562 1280,393.5C 1277.54,382.581 1278.21,371.914 1282,361.5C 1284.11,358.879 1286.61,356.879 1289.5,355.5 Z M 1292.5,362.5 C 1297.64,361.426 1301.47,363.093 1304,367.5C 1306.23,376.293 1305.89,384.96 1303,393.5C 1300.01,396.265 1296.51,397.098 1292.5,396C 1290.33,395.167 1288.83,393.667 1288,391.5C 1285.77,382.707 1286.11,374.04 1289,365.5C 1290.15,364.364 1291.31,363.364 1292.5,362.5 Z"/></g>
<g><path style="opacity:0.922" fill="#fefffe" d="M 1323.5,355.5 C 1326.17,355.5 1328.83,355.5 1331.5,355.5C 1331.5,369.167 1331.5,382.833 1331.5,396.5C 1338.83,396.5 1346.17,396.5 1353.5,396.5C 1353.5,398.833 1353.5,401.167 1353.5,403.5C 1343.5,403.5 1333.5,403.5 1323.5,403.5C 1323.5,387.5 1323.5,371.5 1323.5,355.5 Z"/></g>
<g><path style="opacity:0.887" fill="#fefffe" d="M 1368.5,355.5 C 1386.06,353.73 1394.06,361.73 1392.5,379.5C 1393.3,400.216 1383.97,407.383 1364.5,401C 1361.89,399.062 1360.06,396.562 1359,393.5C 1356.54,382.581 1357.21,371.914 1361,361.5C 1363.11,358.879 1365.61,356.879 1368.5,355.5 Z M 1371.5,362.5 C 1376.64,361.426 1380.47,363.093 1383,367.5C 1385.23,376.293 1384.89,384.96 1382,393.5C 1379.01,396.265 1375.51,397.098 1371.5,396C 1369.33,395.167 1367.83,393.667 1367,391.5C 1364.77,382.707 1365.11,374.04 1368,365.5C 1369.15,364.364 1370.31,363.364 1371.5,362.5 Z"/></g>
<g><path style="opacity:0.896" fill="#fefffe" d="M 1411.5,355.5 C 1424.08,353.276 1431.75,358.276 1434.5,370.5C 1431.75,370.813 1429.09,370.48 1426.5,369.5C 1424.05,363.607 1419.71,361.441 1413.5,363C 1411.67,364.167 1410.17,365.667 1409,367.5C 1407.64,373.785 1407.31,380.118 1408,386.5C 1409.82,396.659 1415.32,399.159 1424.5,394C 1426.23,391.096 1426.89,387.93 1426.5,384.5C 1423.17,384.5 1419.83,384.5 1416.5,384.5C 1416.5,382.5 1416.5,380.5 1416.5,378.5C 1422.5,378.5 1428.5,378.5 1434.5,378.5C 1437.54,396.953 1429.88,405.12 1411.5,403C 1406.43,401.594 1402.93,398.428 1401,393.5C 1398.61,382.61 1399.27,371.943 1403,361.5C 1405.32,358.605 1408.16,356.605 1411.5,355.5 Z"/></g>
<g><path style="opacity:0.893" fill="#fefffe" d="M 1437.5,356.5 C 1440.56,355.182 1443.73,355.182 1447,356.5C 1449.73,362.954 1452.73,369.288 1456,375.5C 1459.13,368.917 1461.96,362.25 1464.5,355.5C 1467.57,355.183 1470.57,355.516 1473.5,356.5C 1469,365.5 1464.5,374.5 1460,383.5C 1459.5,390.158 1459.33,396.825 1459.5,403.5C 1456.83,403.5 1454.17,403.5 1451.5,403.5C 1451.67,396.492 1451.5,389.492 1451,382.5C 1446.73,373.615 1442.23,364.948 1437.5,356.5 Z"/></g>
<g><path style="opacity:0.912" fill="#fefffe" d="M 1539.5,355.5 C 1547.17,355.334 1554.84,355.5 1562.5,356C 1568.41,357.579 1571.91,361.412 1573,367.5C 1573.67,375.5 1573.67,383.5 1573,391.5C 1571.91,397.588 1568.41,401.421 1562.5,403C 1554.84,403.5 1547.17,403.666 1539.5,403.5C 1539.5,387.5 1539.5,371.5 1539.5,355.5 Z M 1547.5,362.5 C 1561.33,359.996 1567.33,365.662 1565.5,379.5C 1567.33,393.338 1561.33,399.004 1547.5,396.5C 1547.5,385.167 1547.5,373.833 1547.5,362.5 Z"/></g>
<g><path style="opacity:0.92" fill="#fefffe" d="M 1583.5,355.5 C 1593.83,355.5 1604.17,355.5 1614.5,355.5C 1614.5,357.833 1614.5,360.167 1614.5,362.5C 1606.83,362.5 1599.17,362.5 1591.5,362.5C 1591.5,367.167 1591.5,371.833 1591.5,376.5C 1597.83,376.5 1604.17,376.5 1610.5,376.5C 1610.5,378.833 1610.5,381.167 1610.5,383.5C 1604.17,383.5 1597.83,383.5 1591.5,383.5C 1591.5,387.833 1591.5,392.167 1591.5,396.5C 1599.17,396.5 1606.83,396.5 1614.5,396.5C 1614.5,398.833 1614.5,401.167 1614.5,403.5C 1604.17,403.5 1593.83,403.5 1583.5,403.5C 1583.5,387.5 1583.5,371.5 1583.5,355.5 Z"/></g>
<g><path style="opacity:0.922" fill="#fefffe" d="M 1623.5,355.5 C 1626.17,355.5 1628.83,355.5 1631.5,355.5C 1631.5,369.167 1631.5,382.833 1631.5,396.5C 1638.83,396.5 1646.17,396.5 1653.5,396.5C 1653.5,398.833 1653.5,401.167 1653.5,403.5C 1643.5,403.5 1633.5,403.5 1623.5,403.5C 1623.5,387.5 1623.5,371.5 1623.5,355.5 Z"/></g>
<g><path style="opacity:0.908" fill="#fefffe" d="M 1661.5,355.5 C 1664.17,355.5 1666.83,355.5 1669.5,355.5C 1669.5,371.5 1669.5,387.5 1669.5,403.5C 1666.83,403.5 1664.17,403.5 1661.5,403.5C 1661.5,387.5 1661.5,371.5 1661.5,355.5 Z"/></g>
<g><path style="opacity:0.887" fill="#fefffe" d="M 1675.5,355.5 C 1678.45,355.223 1681.28,355.556 1684,356.5C 1687.33,367.167 1690.67,377.833 1694,388.5C 1697.6,377.87 1701.1,367.203 1704.5,356.5C 1707.09,355.52 1709.75,355.187 1712.5,355.5C 1708.18,370.968 1703.34,386.301 1698,401.5C 1695.89,403.291 1693.39,403.958 1690.5,403.5C 1685.5,387.501 1680.5,371.501 1675.5,355.5 Z"/></g>
<g><path style="opacity:0.92" fill="#fefffe" d="M 1718.5,355.5 C 1728.83,355.5 1739.17,355.5 1749.5,355.5C 1749.5,357.833 1749.5,360.167 1749.5,362.5C 1741.83,362.5 1734.17,362.5 1726.5,362.5C 1726.5,367.167 1726.5,371.833 1726.5,376.5C 1732.83,376.5 1739.17,376.5 1745.5,376.5C 1745.5,378.833 1745.5,381.167 1745.5,383.5C 1739.17,383.5 1732.83,383.5 1726.5,383.5C 1726.5,387.833 1726.5,392.167 1726.5,396.5C 1734.17,396.5 1741.83,396.5 1749.5,396.5C 1749.5,398.833 1749.5,401.167 1749.5,403.5C 1739.17,403.5 1728.83,403.5 1718.5,403.5C 1718.5,387.5 1718.5,371.5 1718.5,355.5 Z"/></g>
<g><path style="opacity:0.912" fill="#fefffe" d="M 1758.5,355.5 C 1766.51,355.334 1774.51,355.5 1782.5,356C 1791.11,359.88 1793.94,366.38 1791,375.5C 1789.33,379 1786.83,381.667 1783.5,383.5C 1786.71,390.078 1790.04,396.578 1793.5,403C 1790.12,403.824 1786.78,403.657 1783.5,402.5C 1780.5,396.5 1777.5,390.5 1774.5,384.5C 1771.91,383.52 1769.25,383.187 1766.5,383.5C 1766.5,390.167 1766.5,396.833 1766.5,403.5C 1763.83,403.5 1761.17,403.5 1758.5,403.5C 1758.5,387.5 1758.5,371.5 1758.5,355.5 Z M 1766.5,362.5 C 1770.85,362.334 1775.18,362.501 1779.5,363C 1785.49,366.943 1785.82,371.276 1780.5,376C 1775.93,377.309 1771.27,377.809 1766.5,377.5C 1766.5,372.5 1766.5,367.5 1766.5,362.5 Z"/></g>
<g><path style="opacity:0.908" fill="#fefffe" d="M 1801.5,355.5 C 1804.17,355.5 1806.83,355.5 1809.5,355.5C 1809.5,371.5 1809.5,387.5 1809.5,403.5C 1806.83,403.5 1804.17,403.5 1801.5,403.5C 1801.5,387.5 1801.5,371.5 1801.5,355.5 Z"/></g>
<g><path style="opacity:0.918" fill="#fefffe" d="M 1821.5,355.5 C 1824.25,355.187 1826.91,355.52 1829.5,356.5C 1835.8,366.635 1842.3,376.635 1849,386.5C 1849.5,376.172 1849.67,365.839 1849.5,355.5C 1852.17,355.5 1854.83,355.5 1857.5,355.5C 1857.5,371.5 1857.5,387.5 1857.5,403.5C 1854.75,403.813 1852.09,403.48 1849.5,402.5C 1843.2,392.365 1836.7,382.365 1830,372.5C 1829.5,382.828 1829.33,393.161 1829.5,403.5C 1826.83,403.5 1824.17,403.5 1821.5,403.5C 1821.5,387.5 1821.5,371.5 1821.5,355.5 Z"/></g>
<g><path style="opacity:0.896" fill="#fefffe" d="M 1879.5,355.5 C 1892.08,353.276 1899.75,358.276 1902.5,370.5C 1899.75,370.813 1897.09,370.48 1894.5,369.5C 1892.05,363.607 1887.71,361.441 1881.5,363C 1879.67,364.167 1878.17,365.667 1877,367.5C 1875.64,373.785 1875.31,380.118 1876,386.5C 1877.82,396.659 1883.32,399.159 1892.5,394C 1894.23,391.096 1894.89,387.93 1894.5,384.5C 1891.17,384.5 1887.83,384.5 1884.5,384.5C 1884.5,382.5 1884.5,380.5 1884.5,378.5C 1890.5,378.5 1896.5,378.5 1902.5,378.5C 1905.54,396.953 1897.88,405.12 1879.5,403C 1874.43,401.594 1870.93,398.428 1869,393.5C 1866.61,382.61 1867.27,371.943 1871,361.5C 1873.32,358.605 1876.16,356.605 1879.5,355.5 Z"/></g>
<g><path style="opacity:0.896" fill="#fefffe" d="M 1938.5,355.5 C 1951.08,353.276 1958.75,358.276 1961.5,370.5C 1958.75,370.813 1956.09,370.48 1953.5,369.5C 1951.05,363.607 1946.71,361.441 1940.5,363C 1938.67,364.167 1937.17,365.667 1936,367.5C 1934.64,373.785 1934.31,380.118 1935,386.5C 1936.82,396.659 1942.32,399.159 1951.5,394C 1953.23,391.096 1953.89,387.93 1953.5,384.5C 1950.17,384.5 1946.83,384.5 1943.5,384.5C 1943.5,382.5 1943.5,380.5 1943.5,378.5C 1949.5,378.5 1955.5,378.5 1961.5,378.5C 1964.54,396.953 1956.88,405.12 1938.5,403C 1933.43,401.594 1929.93,398.428 1928,393.5C 1925.61,382.61 1926.27,371.943 1930,361.5C 1932.32,358.605 1935.16,356.605 1938.5,355.5 Z"/></g>
<g><path style="opacity:0.912" fill="#fefffe" d="M 1971.5,355.5 C 1979.51,355.334 1987.51,355.5 1995.5,356C 2004.11,359.88 2006.94,366.38 2004,375.5C 2002.33,379 1999.83,381.667 1996.5,383.5C 1999.71,390.078 2003.04,396.578 2006.5,403C 2003.12,403.824 1999.78,403.657 1996.5,402.5C 1993.5,396.5 1990.5,390.5 1987.5,384.5C 1984.91,383.52 1982.25,383.187 1979.5,383.5C 1979.5,390.167 1979.5,396.833 1979.5,403.5C 1976.83,403.5 1974.17,403.5 1971.5,403.5C 1971.5,387.5 1971.5,371.5 1971.5,355.5 Z M 1979.5,362.5 C 1983.85,362.334 1988.18,362.501 1992.5,363C 1998.49,366.943 1998.82,371.276 1993.5,376C 1988.93,377.309 1984.27,377.809 1979.5,377.5C 1979.5,372.5 1979.5,367.5 1979.5,362.5 Z"/></g>
<g><path style="opacity:0.92" fill="#fefffe" d="M 2014.5,355.5 C 2024.83,355.5 2035.17,355.5 2045.5,355.5C 2045.5,357.833 2045.5,360.167 2045.5,362.5C 2037.83,362.5 2030.17,362.5 2022.5,362.5C 2022.5,367.167 2022.5,371.833 2022.5,376.5C 2028.83,376.5 2035.17,376.5 2041.5,376.5C 2041.5,378.833 2041.5,381.167 2041.5,383.5C 2035.17,383.5 2028.83,383.5 2022.5,383.5C 2022.5,387.833 2022.5,392.167 2022.5,396.5C 2030.17,396.5 2037.83,396.5 2045.5,396.5C 2045.5,398.833 2045.5,401.167 2045.5,403.5C 2035.17,403.5 2024.83,403.5 2014.5,403.5C 2014.5,387.5 2014.5,371.5 2014.5,355.5 Z"/></g>
<g><path style="opacity:0.92" fill="#fefffe" d="M 2054.5,355.5 C 2064.83,355.5 2075.17,355.5 2085.5,355.5C 2085.5,357.833 2085.5,360.167 2085.5,362.5C 2077.83,362.5 2070.17,362.5 2062.5,362.5C 2062.5,367.167 2062.5,371.833 2062.5,376.5C 2068.83,376.5 2075.17,376.5 2081.5,376.5C 2081.5,378.833 2081.5,381.167 2081.5,383.5C 2075.17,383.5 2068.83,383.5 2062.5,383.5C 2062.5,387.833 2062.5,392.167 2062.5,396.5C 2070.17,396.5 2077.83,396.5 2085.5,396.5C 2085.5,398.833 2085.5,401.167 2085.5,403.5C 2075.17,403.5 2064.83,403.5 2054.5,403.5C 2054.5,387.5 2054.5,371.5 2054.5,355.5 Z"/></g>
<g><path style="opacity:0.918" fill="#fefffe" d="M 2094.5,355.5 C 2097.25,355.187 2099.91,355.52 2102.5,356.5C 2108.8,366.635 2115.3,376.635 2122,386.5C 2122.5,376.172 2122.67,365.839 2122.5,355.5C 2125.17,355.5 2127.83,355.5 2130.5,355.5C 2130.5,371.5 2130.5,387.5 2130.5,403.5C 2127.75,403.813 2125.09,403.48 2122.5,402.5C 2116.2,392.365 2109.7,382.365 2103,372.5C 2102.5,382.828 2102.33,393.161 2102.5,403.5C 2099.83,403.5 2097.17,403.5 2094.5,403.5C 2094.5,387.5 2094.5,371.5 2094.5,355.5 Z"/></g>
<g><path style="opacity:0.912" fill="#fefffe" d="M 2158.5,355.5 C 2166.17,355.334 2173.84,355.5 2181.5,356C 2187.41,357.579 2190.91,361.412 2192,367.5C 2192.67,375.5 2192.67,383.5 2192,391.5C 2190.91,397.588 2187.41,401.421 2181.5,403C 2173.84,403.5 2166.17,403.666 2158.5,403.5C 2158.5,387.5 2158.5,371.5 2158.5,355.5 Z M 2166.5,362.5 C 2180.33,359.996 2186.33,365.662 2184.5,379.5C 2186.33,393.338 2180.33,399.004 2166.5,396.5C 2166.5,385.167 2166.5,373.833 2166.5,362.5 Z"/></g>
<g><path style="opacity:0.92" fill="#fefffe" d="M 2202.5,355.5 C 2212.83,355.5 2223.17,355.5 2233.5,355.5C 2233.5,357.833 2233.5,360.167 2233.5,362.5C 2225.83,362.5 2218.17,362.5 2210.5,362.5C 2210.5,367.167 2210.5,371.833 2210.5,376.5C 2216.83,376.5 2223.17,376.5 2229.5,376.5C 2229.5,378.833 2229.5,381.167 2229.5,383.5C 2223.17,383.5 2216.83,383.5 2210.5,383.5C 2210.5,387.833 2210.5,392.167 2210.5,396.5C 2218.17,396.5 2225.83,396.5 2233.5,396.5C 2233.5,398.833 2233.5,401.167 2233.5,403.5C 2223.17,403.5 2212.83,403.5 2202.5,403.5C 2202.5,387.5 2202.5,371.5 2202.5,355.5 Z"/></g>
<g><path style="opacity:0.902" fill="#fefffe" d="M 2253.5,355.5 C 2256.12,355.232 2258.62,355.565 2261,356.5C 2266.81,372.089 2272.31,387.755 2277.5,403.5C 2274.81,403.664 2272.15,403.497 2269.5,403C 2268,399.995 2267,396.829 2266.5,393.5C 2260.49,393.334 2254.49,393.501 2248.5,394C 2247,397.005 2246,400.171 2245.5,403.5C 2242.48,403.665 2239.48,403.498 2236.5,403C 2242.31,387.214 2247.98,371.381 2253.5,355.5 Z M 2256.5,368.5 C 2259.8,374.385 2262.13,380.718 2263.5,387.5C 2259.12,387.826 2254.78,387.492 2250.5,386.5C 2253.1,380.686 2255.1,374.686 2256.5,368.5 Z"/></g>
<g><path style="opacity:0.922" fill="#fefffe" d="M 2283.5,355.5 C 2286.17,355.5 2288.83,355.5 2291.5,355.5C 2291.5,369.167 2291.5,382.833 2291.5,396.5C 2298.83,396.5 2306.17,396.5 2313.5,396.5C 2313.5,398.833 2313.5,401.167 2313.5,403.5C 2303.5,403.5 2293.5,403.5 2283.5,403.5C 2283.5,387.5 2283.5,371.5 2283.5,355.5 Z"/></g>
<g><path style="opacity:0.86" fill="#fefffe" d="M 641.5,381.5 C 648.167,381.5 654.833,381.5 661.5,381.5C 661.5,383.833 661.5,386.167 661.5,388.5C 654.833,388.5 648.167,388.5 641.5,388.5C 641.5,386.167 641.5,383.833 641.5,381.5 Z"/></g>
<g><path style="opacity:0.86" fill="#fefffe" d="M 1493.5,381.5 C 1500.17,381.5 1506.83,381.5 1513.5,381.5C 1513.5,383.833 1513.5,386.167 1513.5,388.5C 1506.83,388.5 1500.17,388.5 1493.5,388.5C 1493.5,386.167 1493.5,383.833 1493.5,381.5 Z"/></g>
</svg>
