<svg id="svg" version="1.1" xmlns="http://www.w3.org/2000/svg" xmlns:xlink="http://www.w3.org/1999/xlink" width="400" height="88.44221105527639" viewBox="0, 0, 400,88.44221105527639"><g id="svgg"><path id="path0" d="M8.944 6.944 C 8.721 7.168,8.816 26.136,9.042 26.282 C 9.219 26.396,56.027 26.405,58.667 26.291 C 59.171 26.269,48.221 26.214,34.333 26.167 L 9.083 26.083 9.040 16.554 C 9.000 7.581,9.014 7.020,9.290 6.948 C 9.524 6.888,9.530 6.868,9.319 6.853 C 9.174 6.842,9.006 6.883,8.944 6.944 M263.778 31.111 C 263.717 31.172,263.685 38.841,263.708 48.153 L 263.748 65.083 263.792 48.394 L 263.835 31.704 264.239 31.439 C 264.560 31.229,265.235 31.164,267.530 31.125 L 270.417 31.075 267.153 31.037 C 265.358 31.017,263.839 31.050,263.778 31.111 M274.350 31.155 C 275.334 31.213,276.057 31.338,276.225 31.479 C 276.477 31.688,276.500 33.093,276.500 48.298 C 276.500 57.423,276.552 64.836,276.617 64.772 C 276.809 64.580,276.788 31.982,276.595 31.458 L 276.427 31.000 274.588 31.030 L 272.750 31.059 274.350 31.155 M41.181 31.457 C 36.366 31.490,34.380 31.559,34.212 31.698 C 33.839 32.007,33.982 75.119,34.357 75.393 C 34.499 75.498,34.628 75.658,34.642 75.750 C 34.688 76.056,54.000 76.057,54.000 75.751 C 54.000 75.530,55.424 75.500,66.075 75.500 C 74.816 75.500,78.267 75.447,78.571 75.308 L 78.992 75.117 79.038 66.100 C 79.063 61.141,79.028 56.958,78.960 56.805 C 78.700 56.221,77.918 56.183,66.092 56.174 C 58.192 56.169,54.377 56.110,54.258 55.992 C 54.141 55.874,54.056 51.862,54.000 43.819 C 53.909 30.771,53.970 31.519,53.000 31.494 C 50.469 31.429,46.794 31.418,41.181 31.457 M9.583 31.813 L 9.083 31.920 9.036 40.918 C 8.986 50.307,9.009 50.904,9.437 51.068 C 9.990 51.280,27.827 51.213,28.086 50.997 C 28.451 50.695,28.459 32.269,28.095 31.905 C 27.845 31.654,10.723 31.569,9.583 31.813 M53.473 32.055 L 53.838 32.443 53.794 43.946 C 53.758 53.402,53.709 55.498,53.521 55.724 C 53.225 56.081,34.721 56.154,34.367 55.800 C 34.215 55.648,34.167 52.776,34.167 43.893 L 34.167 32.186 34.537 31.926 C 34.861 31.699,36.041 31.667,44.008 31.667 L 53.109 31.667 53.473 32.055 M91.379 33.000 C 91.379 33.412,91.411 33.581,91.451 33.375 C 91.491 33.169,91.491 32.831,91.451 32.625 C 91.411 32.419,91.379 32.587,91.379 33.000 " stroke="none" fill="#6568ae" fill-rule="evenodd"></path><path id="path1" d="M60.055 7.264 C 59.999 7.409,59.996 12.753,60.049 19.139 C 60.101 25.525,60.168 35.182,60.197 40.599 C 60.240 48.644,60.292 50.499,60.479 50.724 C 60.854 51.177,78.153 51.143,78.564 50.688 C 78.896 50.321,79.093 7.493,78.764 7.164 C 78.452 6.852,60.176 6.949,60.055 7.264 M9.887 56.279 C 9.070 56.447,9.083 56.295,9.095 65.800 L 9.106 74.714 9.488 75.024 C 9.850 75.317,10.349 75.333,18.842 75.333 L 27.814 75.333 28.074 74.963 C 28.447 74.430,28.468 57.082,28.097 56.574 C 27.871 56.265,11.262 55.996,9.887 56.279 M264.006 65.656 C 263.719 66.192,263.777 74.693,264.070 75.093 C 264.354 75.480,295.784 75.489,296.039 75.102 C 296.234 74.807,296.192 66.026,295.994 65.656 C 295.723 65.149,264.277 65.149,264.006 65.656 " stroke="none" fill="#3dac55" fill-rule="evenodd"></path><path id="path2" d="M9.290 6.948 C 9.014 7.020,9.000 7.581,9.040 16.554 L 9.083 26.083 34.167 26.129 C 47.962 26.154,59.419 26.134,59.625 26.084 L 60.000 25.994 60.000 16.515 C 60.000 8.025,59.972 7.025,59.736 6.934 C 59.434 6.818,9.736 6.832,9.290 6.948 M267.530 31.118 C 265.242 31.163,264.559 31.230,264.238 31.440 L 263.833 31.705 263.833 48.418 C 263.833 63.504,263.859 65.141,264.097 65.232 C 264.440 65.364,275.633 65.360,276.125 65.228 L 276.500 65.128 276.500 48.401 L 276.500 31.674 276.125 31.438 C 275.687 31.161,272.102 31.027,267.530 31.118 M34.537 31.926 L 34.167 32.186 34.167 43.893 C 34.167 52.776,34.215 55.648,34.367 55.800 C 34.721 56.154,53.225 56.081,53.521 55.724 C 53.709 55.498,53.758 53.402,53.794 43.946 L 53.838 32.443 53.473 32.055 L 53.109 31.667 44.008 31.667 C 36.041 31.667,34.861 31.699,34.537 31.926 M54.900 40.000 C 54.900 41.421,54.926 42.002,54.957 41.292 C 54.988 40.581,54.988 39.419,54.957 38.708 C 54.926 37.998,54.900 38.579,54.900 40.000 M54.889 47.167 C 54.889 47.854,54.919 48.135,54.955 47.792 C 54.991 47.448,54.991 46.885,54.955 46.542 C 54.919 46.198,54.889 46.479,54.889 47.167 M54.892 52.583 C 54.892 53.408,54.920 53.767,54.955 53.380 C 54.990 52.993,54.990 52.318,54.956 51.880 C 54.922 51.442,54.893 51.758,54.892 52.583 " stroke="none" fill="#258ccc" fill-rule="evenodd"></path><path id="path3" d="M8.443 6.446 C 8.241 6.648,8.322 26.869,8.525 27.114 C 8.675 27.294,13.230 27.333,33.687 27.333 L 58.667 27.333 58.679 35.458 C 58.686 39.927,58.751 44.746,58.823 46.167 C 58.896 47.599,58.890 48.821,58.811 48.908 C 58.375 49.387,58.957 51.653,59.575 51.891 C 60.218 52.137,79.842 51.922,80.004 51.667 C 80.102 51.511,80.147 42.919,80.123 28.917 L 80.083 6.417 44.320 6.375 C 24.650 6.351,8.505 6.384,8.443 6.446 M69.230 6.959 C 74.887 6.981,78.619 7.058,78.736 7.155 C 79.091 7.450,78.922 50.293,78.564 50.688 C 78.153 51.143,60.854 51.177,60.479 50.724 C 60.290 50.497,60.243 48.304,60.209 38.280 C 60.165 25.317,60.190 25.845,59.625 26.139 C 59.184 26.368,9.393 26.509,9.042 26.282 C 8.815 26.135,8.721 7.168,8.946 6.943 C 9.043 6.846,41.481 6.854,69.230 6.959 M150.333 29.961 C 148.849 30.002,147.667 30.326,147.667 30.693 C 147.667 30.758,147.517 30.858,147.333 30.917 C 146.809 31.083,146.864 32.750,147.414 33.375 L 147.817 33.833 153.906 33.833 L 159.995 33.833 160.039 54.566 C 160.091 78.776,159.794 76.000,162.333 76.000 C 164.778 76.000,164.500 78.741,164.500 54.612 L 164.500 33.833 171.064 33.833 L 177.629 33.833 177.898 33.266 C 178.479 32.042,178.066 30.752,176.984 30.414 C 176.764 30.345,176.543 30.226,176.494 30.150 C 176.412 30.023,153.951 29.860,150.333 29.961 M349.000 29.982 C 348.749 30.051,348.563 30.239,348.531 30.455 C 348.495 30.703,348.342 30.829,348.031 30.865 L 347.583 30.917 347.500 49.151 C 347.417 67.219,347.389 68.066,346.915 66.500 C 346.845 66.271,346.582 65.847,346.330 65.558 C 346.078 65.268,345.736 64.725,345.570 64.349 C 345.405 63.974,345.226 63.667,345.173 63.667 C 345.120 63.667,344.892 63.329,344.667 62.917 C 344.441 62.504,344.205 62.167,344.142 62.167 C 344.078 62.167,343.977 61.942,343.917 61.667 C 343.856 61.392,343.745 61.167,343.670 61.167 C 343.595 61.167,343.379 60.870,343.190 60.508 C 343.002 60.146,342.619 59.535,342.340 59.150 C 342.061 58.765,341.833 58.354,341.833 58.237 C 341.833 58.120,341.646 57.877,341.417 57.696 C 341.188 57.516,341.000 57.313,341.000 57.244 C 341.000 56.964,340.227 55.546,339.796 55.036 C 339.541 54.735,339.333 54.387,339.333 54.262 C 339.333 54.138,339.221 53.992,339.083 53.940 C 338.946 53.887,338.833 53.689,338.833 53.500 C 338.833 53.311,338.721 53.113,338.583 53.060 C 338.446 53.008,338.333 52.865,338.333 52.743 C 338.333 52.622,338.183 52.475,338.000 52.417 C 337.743 52.335,337.690 52.217,337.768 51.905 C 337.842 51.608,337.801 51.500,337.613 51.500 C 337.472 51.500,337.331 51.331,337.299 51.125 C 337.268 50.919,337.150 50.769,337.038 50.792 C 336.925 50.815,336.842 50.777,336.853 50.708 C 336.917 50.304,336.801 50.000,336.583 50.000 C 336.446 50.000,336.333 49.859,336.333 49.687 C 336.333 49.515,336.221 49.281,336.083 49.167 C 335.946 49.053,335.833 48.832,335.833 48.677 C 335.833 48.522,335.608 48.180,335.333 47.917 C 335.058 47.653,334.833 47.311,334.833 47.156 C 334.833 47.001,334.721 46.781,334.583 46.667 C 334.446 46.553,334.333 46.356,334.333 46.230 C 334.333 46.103,334.262 46.000,334.176 46.000 C 334.020 46.000,333.609 45.359,333.401 44.792 C 333.343 44.631,333.191 44.500,333.064 44.500 C 332.919 44.500,332.833 44.315,332.833 44.000 C 332.833 43.667,332.750 43.500,332.583 43.500 C 332.446 43.500,332.333 43.387,332.333 43.250 C 332.333 43.112,332.221 43.000,332.083 43.000 C 331.917 43.000,331.833 42.833,331.833 42.500 C 331.833 42.167,331.750 42.000,331.583 42.000 C 331.427 42.000,331.333 41.842,331.333 41.578 C 331.333 41.346,331.221 41.113,331.083 41.060 C 330.946 41.008,330.833 40.832,330.833 40.669 C 330.833 40.507,330.721 40.281,330.583 40.167 C 330.446 40.053,330.333 39.865,330.333 39.749 C 330.333 39.633,330.188 39.501,330.011 39.455 C 329.779 39.394,329.714 39.272,329.780 39.020 C 329.840 38.791,329.779 38.635,329.602 38.568 C 329.454 38.511,329.333 38.360,329.333 38.232 C 329.333 38.104,329.221 38.000,329.083 38.000 C 328.927 38.000,328.833 37.842,328.833 37.578 C 328.833 37.346,328.721 37.113,328.583 37.060 C 328.446 37.008,328.333 36.832,328.333 36.669 C 328.333 36.507,328.221 36.281,328.083 36.167 C 327.946 36.053,327.833 35.865,327.833 35.750 C 327.833 35.635,327.721 35.447,327.583 35.333 C 327.446 35.219,327.333 34.985,327.333 34.813 C 327.333 34.641,327.221 34.500,327.083 34.500 C 326.946 34.500,326.833 34.397,326.833 34.270 C 326.833 34.144,326.721 33.947,326.583 33.833 C 326.446 33.719,326.331 33.504,326.328 33.355 C 326.321 33.027,325.769 32.333,325.515 32.333 C 325.415 32.333,325.333 32.146,325.333 31.917 C 325.333 31.657,325.239 31.500,325.083 31.500 C 324.946 31.500,324.833 31.385,324.833 31.245 C 324.833 31.104,324.702 30.941,324.542 30.882 C 324.381 30.823,324.212 30.731,324.167 30.679 C 323.669 30.109,322.109 29.809,321.940 30.250 C 321.887 30.388,321.741 30.500,321.614 30.500 C 320.793 30.500,320.831 29.383,320.835 53.556 L 320.838 76.000 322.574 76.000 C 325.124 76.000,324.830 78.433,324.853 57.113 C 324.863 47.013,324.906 38.881,324.948 39.042 C 324.990 39.202,325.075 39.335,325.137 39.337 C 325.199 39.339,325.438 39.752,325.667 40.256 C 325.934 40.843,326.211 41.205,326.438 41.265 C 326.702 41.335,326.816 41.528,326.881 42.014 C 326.942 42.470,327.126 42.807,327.484 43.122 C 327.768 43.371,328.000 43.708,328.000 43.870 C 328.000 44.033,328.075 44.167,328.167 44.167 C 328.258 44.167,328.333 44.271,328.333 44.399 C 328.333 44.527,328.444 44.674,328.580 44.726 C 328.716 44.778,328.876 45.124,328.935 45.496 C 329.019 46.022,329.131 46.193,329.438 46.270 C 329.664 46.327,329.833 46.493,329.833 46.659 C 329.833 46.819,329.983 47.122,330.167 47.333 C 330.350 47.545,330.500 47.856,330.500 48.026 C 330.500 48.195,330.612 48.333,330.750 48.333 C 330.887 48.333,331.000 48.414,331.000 48.512 C 331.000 48.610,331.112 48.803,331.250 48.940 C 331.387 49.078,331.500 49.327,331.500 49.494 C 331.500 49.661,331.612 49.841,331.750 49.894 C 331.887 49.946,332.000 50.174,332.000 50.400 C 332.000 50.680,332.119 50.848,332.375 50.928 C 332.845 51.075,332.994 51.297,332.997 51.857 C 332.999 52.099,333.112 52.341,333.250 52.394 C 333.387 52.446,333.500 52.679,333.500 52.911 C 333.500 53.143,333.596 53.333,333.713 53.333 C 334.045 53.333,334.500 53.960,334.500 54.419 C 334.500 54.676,334.595 54.833,334.750 54.833 C 334.917 54.833,335.000 55.000,335.000 55.333 C 335.000 55.667,335.083 55.833,335.250 55.833 C 335.387 55.833,335.500 55.933,335.500 56.056 C 335.500 56.178,335.723 56.497,335.995 56.764 C 336.279 57.042,336.493 57.429,336.495 57.668 C 336.498 57.927,336.691 58.245,337.000 58.500 C 337.275 58.727,337.500 59.037,337.500 59.189 C 337.500 59.340,337.612 59.508,337.750 59.560 C 337.887 59.613,338.000 59.846,338.000 60.078 C 338.000 60.342,338.094 60.500,338.250 60.500 C 338.406 60.500,338.500 60.657,338.500 60.917 C 338.500 61.176,338.594 61.333,338.750 61.333 C 338.887 61.333,339.000 61.448,339.000 61.589 C 339.000 61.729,339.112 61.887,339.250 61.940 C 339.393 61.994,339.500 62.243,339.500 62.518 C 339.500 62.835,339.585 63.000,339.750 63.000 C 339.890 63.000,340.000 63.149,340.000 63.339 C 340.000 63.525,340.112 63.720,340.250 63.773 C 340.387 63.826,340.500 63.976,340.500 64.106 C 340.500 64.237,340.612 64.387,340.750 64.440 C 340.887 64.492,341.000 64.717,341.000 64.940 C 341.000 65.162,341.112 65.387,341.250 65.440 C 341.387 65.492,341.500 65.715,341.500 65.934 C 341.500 66.154,341.564 66.333,341.641 66.333 C 341.972 66.333,342.500 66.989,342.500 67.400 C 342.500 67.644,342.613 67.887,342.750 67.940 C 342.887 67.992,343.000 68.130,343.000 68.245 C 343.000 68.361,343.224 68.709,343.497 69.019 C 343.771 69.329,343.996 69.705,343.997 69.855 C 343.999 70.004,344.105 70.213,344.234 70.320 C 344.362 70.426,344.513 70.697,344.570 70.921 C 344.632 71.170,344.833 71.369,345.086 71.432 C 345.404 71.512,345.500 71.645,345.500 72.006 C 345.500 72.265,345.613 72.589,345.750 72.726 C 345.887 72.864,346.000 73.117,346.000 73.288 C 346.000 73.683,346.312 74.000,346.700 74.000 C 346.921 74.000,347.000 74.129,347.000 74.488 C 347.000 74.757,347.098 75.075,347.218 75.196 C 347.337 75.318,347.486 75.551,347.548 75.715 C 347.649 75.980,347.876 76.011,349.569 75.989 C 351.221 75.968,351.463 75.930,351.376 75.705 C 351.311 75.534,351.343 75.486,351.472 75.566 C 351.967 75.872,352.000 74.495,352.000 53.333 C 352.000 31.357,351.991 31.054,351.352 30.886 C 351.181 30.842,350.958 30.624,350.857 30.403 C 350.736 30.137,350.535 30.000,350.267 30.000 C 350.044 30.000,349.761 29.970,349.639 29.934 C 349.517 29.897,349.229 29.919,349.000 29.982 M365.125 30.095 C 364.873 30.232,364.667 30.436,364.667 30.549 C 364.667 30.662,364.498 30.828,364.292 30.919 L 363.917 31.083 363.917 53.000 C 363.917 65.770,363.980 75.056,364.068 75.250 C 364.151 75.433,364.204 75.680,364.184 75.797 C 364.157 75.963,364.573 76.000,366.033 75.964 L 367.917 75.917 367.972 75.432 C 368.002 75.165,368.139 74.776,368.275 74.568 C 368.470 74.271,368.504 73.839,368.432 72.553 C 367.823 61.690,367.957 58.369,369.033 57.667 C 369.460 57.388,371.310 55.569,372.083 54.667 C 372.358 54.346,372.902 53.867,373.292 53.602 C 373.681 53.338,374.000 53.019,374.000 52.894 C 374.000 52.564,374.221 52.615,374.461 53.000 C 374.576 53.183,374.781 53.333,374.918 53.333 C 375.055 53.333,375.167 53.448,375.167 53.589 C 375.167 53.729,375.279 53.887,375.417 53.940 C 375.554 53.992,375.667 54.238,375.667 54.484 C 375.667 55.004,375.938 55.333,376.367 55.333 C 376.561 55.333,376.667 55.457,376.667 55.684 C 376.667 55.927,376.743 56.006,376.915 55.940 C 377.051 55.888,377.155 55.899,377.145 55.964 C 377.066 56.491,377.231 56.853,377.667 57.110 C 377.993 57.303,378.167 57.539,378.167 57.791 C 378.167 58.003,378.279 58.220,378.417 58.273 C 378.554 58.326,378.669 58.455,378.671 58.559 C 378.674 58.664,378.899 58.969,379.171 59.236 C 379.444 59.503,379.667 59.813,379.667 59.924 C 379.667 60.035,379.779 60.219,379.917 60.333 C 380.054 60.447,380.167 60.672,380.167 60.833 C 380.167 60.994,380.503 61.416,380.914 61.771 C 381.405 62.195,381.663 62.552,381.664 62.812 C 381.666 63.060,381.944 63.473,382.417 63.925 C 382.829 64.320,383.167 64.746,383.167 64.872 C 383.167 64.997,383.250 65.184,383.353 65.286 C 383.455 65.388,383.625 65.647,383.731 65.861 C 383.836 66.075,384.090 66.324,384.295 66.415 C 384.517 66.513,384.667 66.727,384.667 66.946 C 384.667 67.148,384.743 67.361,384.836 67.418 C 384.929 67.476,385.110 67.774,385.238 68.081 C 385.367 68.389,385.628 68.724,385.819 68.826 C 386.010 68.928,386.167 69.113,386.167 69.236 C 386.167 69.360,386.324 69.502,386.517 69.553 C 386.709 69.603,386.820 69.720,386.763 69.812 C 386.706 69.904,386.886 70.238,387.163 70.554 C 387.440 70.869,387.667 71.203,387.667 71.296 C 387.667 71.389,387.779 71.508,387.917 71.560 C 388.054 71.613,388.167 71.782,388.167 71.935 C 388.167 72.088,388.392 72.429,388.667 72.692 C 388.942 72.955,389.167 73.321,389.167 73.507 C 389.167 73.692,389.279 73.887,389.417 73.940 C 389.554 73.992,389.667 74.107,389.667 74.195 C 389.667 74.283,389.883 74.537,390.148 74.760 C 390.413 74.983,390.677 75.353,390.735 75.583 C 390.839 75.998,390.851 76.000,392.753 76.000 L 394.667 76.000 394.667 75.427 C 394.667 75.111,394.736 74.810,394.820 74.758 C 395.035 74.626,394.528 73.667,394.243 73.667 C 394.097 73.667,394.049 73.566,394.114 73.396 C 394.177 73.233,394.108 73.064,393.942 72.971 C 393.791 72.886,393.667 72.677,393.667 72.507 C 393.667 72.336,393.442 72.007,393.167 71.776 C 392.892 71.544,392.667 71.241,392.667 71.102 C 392.667 70.964,392.573 70.790,392.458 70.717 C 392.233 70.572,391.920 70.114,391.685 69.583 C 391.603 69.400,391.341 69.040,391.102 68.783 C 390.862 68.526,390.667 68.205,390.667 68.070 C 390.667 67.934,390.554 67.780,390.417 67.727 C 390.279 67.674,390.167 67.535,390.167 67.417 C 390.167 67.299,390.054 67.159,389.917 67.106 C 389.779 67.054,389.667 66.901,389.667 66.767 C 389.667 66.633,389.572 66.425,389.456 66.304 C 388.951 65.776,388.167 64.686,388.167 64.512 C 388.167 64.408,388.054 64.280,387.917 64.227 C 387.779 64.174,387.667 64.024,387.667 63.894 C 387.667 63.763,387.554 63.613,387.417 63.560 C 387.279 63.508,387.167 63.360,387.167 63.232 C 387.167 63.104,387.096 63.000,387.009 63.000 C 386.846 63.000,386.485 62.419,386.157 61.625 C 386.053 61.373,385.909 61.167,385.837 61.167 C 385.766 61.167,385.417 60.735,385.062 60.208 C 384.707 59.681,384.374 59.212,384.321 59.167 C 384.268 59.121,384.083 58.840,383.910 58.542 C 383.737 58.244,383.507 58.000,383.399 58.000 C 383.291 58.000,383.154 57.806,383.094 57.568 C 383.027 57.299,382.902 57.169,382.762 57.222 C 382.608 57.282,382.564 57.209,382.621 56.990 C 382.673 56.793,382.602 56.631,382.436 56.568 C 382.288 56.511,382.167 56.360,382.167 56.232 C 382.167 56.104,382.054 56.000,381.917 56.000 C 381.779 56.000,381.667 55.859,381.667 55.687 C 381.667 55.515,381.554 55.281,381.417 55.167 C 381.279 55.053,381.167 54.867,381.167 54.754 C 381.167 54.641,380.998 54.356,380.792 54.121 C 379.952 53.165,379.667 52.799,379.667 52.678 C 379.667 52.608,379.535 52.394,379.375 52.201 C 378.651 51.334,378.261 50.772,377.958 50.160 C 377.779 49.797,377.508 49.495,377.358 49.489 C 377.172 49.482,377.207 49.429,377.466 49.325 C 377.676 49.241,377.960 48.905,378.096 48.579 C 378.232 48.252,378.471 47.937,378.627 47.877 C 378.948 47.754,379.667 47.020,379.667 46.816 C 379.667 46.606,380.554 45.833,380.794 45.833 C 380.912 45.833,381.053 45.608,381.108 45.333 C 381.163 45.058,381.311 44.833,381.438 44.833 C 381.564 44.833,381.667 44.721,381.667 44.583 C 381.667 44.446,381.779 44.333,381.917 44.333 C 382.054 44.333,382.167 44.221,382.167 44.083 C 382.167 43.946,382.279 43.833,382.417 43.833 C 382.554 43.833,382.667 43.729,382.667 43.601 C 382.667 43.473,382.779 43.326,382.917 43.273 C 383.054 43.220,383.167 43.065,383.167 42.927 C 383.167 42.773,383.263 42.714,383.417 42.773 C 383.575 42.834,383.667 42.771,383.667 42.601 C 383.667 42.454,383.779 42.333,383.917 42.333 C 384.054 42.333,384.167 42.258,384.167 42.167 C 384.167 41.951,384.784 41.333,385.000 41.333 C 385.092 41.333,385.167 41.262,385.167 41.176 C 385.167 41.089,385.635 40.543,386.208 39.962 C 388.740 37.393,391.588 34.309,391.637 34.082 C 391.667 33.945,391.798 33.833,391.929 33.833 C 392.060 33.833,392.167 33.730,392.167 33.603 C 392.167 33.476,392.316 33.333,392.499 33.285 C 392.682 33.237,392.875 33.060,392.928 32.891 C 392.981 32.722,393.094 32.471,393.180 32.333 C 393.265 32.196,393.382 31.985,393.440 31.864 C 393.571 31.588,393.180 30.833,392.906 30.833 C 392.794 30.833,392.525 30.647,392.309 30.420 C 391.745 29.825,390.109 29.893,389.910 30.520 C 389.856 30.692,389.720 30.833,389.609 30.833 C 389.498 30.833,389.279 30.983,389.122 31.167 C 388.965 31.350,388.742 31.502,388.627 31.504 C 388.511 31.507,388.231 31.810,388.004 32.177 C 387.777 32.545,387.421 32.889,387.213 32.941 C 387.004 32.993,386.833 33.138,386.833 33.263 C 386.833 33.387,386.009 34.298,385.000 35.286 C 383.992 36.275,383.167 37.177,383.167 37.292 C 383.167 37.406,383.054 37.500,382.917 37.500 C 382.779 37.500,382.667 37.595,382.667 37.710 C 382.667 37.826,382.498 37.995,382.292 38.085 C 382.085 38.176,381.843 38.419,381.752 38.625 C 381.662 38.831,381.495 39.000,381.381 39.000 C 381.267 39.000,381.041 39.203,380.879 39.452 C 380.511 40.015,379.537 41.000,379.348 41.000 C 379.125 41.000,378.817 41.443,378.790 41.802 C 378.775 41.996,378.677 42.096,378.549 42.047 C 378.430 42.002,378.333 42.029,378.333 42.107 C 378.333 42.186,377.735 42.887,377.003 43.667 C 376.272 44.446,375.672 45.177,375.670 45.292 C 375.668 45.406,375.554 45.500,375.417 45.500 C 375.279 45.500,375.166 45.594,375.166 45.708 C 375.165 45.823,374.940 46.044,374.666 46.201 C 374.370 46.369,374.167 46.622,374.167 46.820 C 374.167 47.050,374.088 47.126,373.917 47.060 C 373.779 47.008,373.667 47.047,373.667 47.149 C 373.667 47.379,373.058 48.000,372.833 48.000 C 372.742 48.000,372.667 48.112,372.667 48.250 C 372.667 48.387,372.554 48.500,372.417 48.500 C 372.279 48.500,372.167 48.595,372.167 48.710 C 372.167 48.826,371.998 48.995,371.792 49.085 C 371.585 49.176,371.343 49.419,371.252 49.625 C 371.162 49.831,370.993 50.000,370.877 50.000 C 370.761 50.000,370.667 50.095,370.667 50.210 C 370.667 50.326,370.504 50.495,370.305 50.585 C 370.107 50.676,369.863 50.893,369.764 51.069 C 369.508 51.521,369.029 52.000,368.833 52.000 C 368.742 52.000,368.667 52.112,368.667 52.250 C 368.667 52.387,368.594 52.500,368.504 52.500 C 368.413 52.500,368.385 52.282,368.441 52.001 C 368.496 51.727,368.456 51.295,368.351 51.043 C 368.182 50.634,368.121 47.179,368.005 31.479 C 368.003 31.151,367.876 30.989,367.501 30.834 C 367.225 30.720,367.000 30.521,367.000 30.392 C 367.000 29.883,365.852 29.701,365.125 30.095 M92.833 30.334 C 92.513 30.509,92.046 30.737,91.796 30.841 C 91.129 31.118,91.150 30.286,91.202 53.667 C 91.258 78.909,90.955 76.000,93.528 76.000 C 95.013 76.000,95.169 75.969,95.407 75.630 C 95.686 75.231,95.816 31.626,95.539 31.250 C 95.350 30.993,94.368 30.333,94.173 30.333 C 94.078 30.333,94.000 30.258,94.000 30.167 C 94.000 29.908,93.476 29.984,92.833 30.334 M108.602 30.500 C 108.337 30.770,108.055 30.951,107.976 30.902 C 107.895 30.852,107.851 40.724,107.874 53.365 L 107.917 75.917 109.417 75.966 C 111.227 76.025,111.559 75.954,111.780 75.462 C 111.894 75.210,111.939 69.072,111.916 57.041 C 111.887 41.869,111.917 39.029,112.107 39.187 C 112.232 39.290,112.333 39.477,112.333 39.604 C 112.333 39.730,112.446 39.833,112.583 39.833 C 112.750 39.833,112.833 40.000,112.833 40.333 C 112.833 40.656,112.918 40.833,113.072 40.833 C 113.209 40.833,113.334 41.029,113.364 41.292 C 113.399 41.599,113.509 41.743,113.695 41.729 C 113.867 41.716,113.940 41.796,113.886 41.936 C 113.838 42.061,113.919 42.210,114.066 42.266 C 114.226 42.328,114.333 42.562,114.333 42.851 C 114.333 43.149,114.421 43.333,114.563 43.333 C 114.689 43.333,114.838 43.566,114.895 43.851 C 114.971 44.231,115.068 44.343,115.258 44.270 C 115.401 44.215,115.475 44.239,115.424 44.322 C 115.372 44.405,115.443 44.586,115.582 44.725 C 115.720 44.863,115.833 45.134,115.833 45.327 C 115.833 45.519,115.946 45.720,116.083 45.773 C 116.221 45.826,116.333 45.939,116.333 46.025 C 116.333 46.209,117.028 47.225,117.208 47.306 C 117.277 47.336,117.333 47.459,117.333 47.579 C 117.333 47.699,117.446 47.841,117.583 47.894 C 117.721 47.946,117.833 48.177,117.833 48.406 C 117.833 48.676,118.010 48.954,118.333 49.193 C 118.677 49.447,118.833 49.705,118.833 50.019 C 118.833 50.271,118.946 50.589,119.083 50.726 C 119.221 50.864,119.333 51.045,119.333 51.129 C 119.333 51.213,119.483 51.417,119.667 51.583 C 119.850 51.749,120.001 51.817,120.003 51.734 C 120.008 51.419,120.328 52.100,120.331 52.433 C 120.332 52.625,120.478 52.913,120.655 53.073 C 120.833 53.233,120.937 53.470,120.888 53.599 C 120.807 53.810,121.014 53.914,121.387 53.849 C 121.463 53.836,121.480 53.897,121.426 53.986 C 121.371 54.074,121.450 54.215,121.601 54.300 C 121.752 54.384,121.875 54.647,121.875 54.883 C 121.875 55.120,121.978 55.353,122.104 55.402 C 122.230 55.450,122.333 55.628,122.333 55.797 C 122.333 55.966,122.552 56.314,122.820 56.570 C 123.087 56.827,123.351 57.216,123.406 57.435 C 123.461 57.654,123.580 57.833,123.670 57.833 C 123.760 57.833,123.833 58.012,123.833 58.231 C 123.833 58.474,124.027 58.782,124.332 59.023 C 124.606 59.239,124.831 59.543,124.832 59.696 C 124.833 59.850,124.950 60.093,125.092 60.235 C 125.235 60.378,125.382 60.653,125.419 60.847 C 125.457 61.041,125.679 61.391,125.914 61.626 C 126.148 61.860,126.384 62.228,126.438 62.443 C 126.492 62.658,126.603 62.833,126.685 62.833 C 126.766 62.833,126.833 62.900,126.833 62.981 C 126.833 63.216,128.033 65.000,128.191 65.000 C 128.269 65.000,128.332 65.094,128.330 65.208 C 128.325 65.634,129.094 66.975,129.392 67.058 C 129.561 67.106,129.651 67.224,129.590 67.322 C 129.530 67.420,129.554 67.500,129.644 67.500 C 129.733 67.500,129.855 67.720,129.914 67.988 C 129.973 68.257,130.129 68.566,130.261 68.676 C 130.392 68.785,130.502 68.959,130.505 69.062 C 130.507 69.165,130.732 69.469,131.005 69.736 C 131.277 70.003,131.500 70.397,131.500 70.611 C 131.500 70.833,131.589 70.982,131.708 70.958 C 131.826 70.935,131.940 71.120,131.970 71.385 C 132.000 71.642,132.131 71.894,132.262 71.944 C 132.393 71.995,132.500 72.140,132.500 72.268 C 132.500 72.396,132.612 72.500,132.750 72.500 C 132.904 72.500,133.000 72.656,133.000 72.908 C 133.000 73.133,133.105 73.377,133.234 73.450 C 133.363 73.523,133.494 73.771,133.526 74.000 C 133.569 74.313,133.698 74.430,134.042 74.469 C 134.441 74.515,134.500 74.595,134.500 75.089 C 134.500 75.896,134.848 76.020,136.958 75.964 L 138.750 75.917 138.792 53.458 C 138.816 40.879,138.771 31.000,138.690 31.000 C 138.611 31.000,138.263 30.775,137.917 30.500 C 137.018 29.786,135.736 29.899,135.128 30.746 C 135.060 30.840,134.994 39.392,134.980 49.750 C 134.966 60.108,134.922 68.410,134.881 68.198 C 134.841 67.986,134.701 67.772,134.570 67.722 C 134.440 67.672,134.333 67.449,134.333 67.227 C 134.333 67.005,134.221 66.780,134.083 66.727 C 133.946 66.674,133.833 66.535,133.833 66.417 C 133.833 66.299,133.721 66.159,133.583 66.106 C 133.446 66.054,133.333 65.905,133.333 65.776 C 133.333 65.646,133.221 65.447,133.083 65.333 C 132.946 65.219,132.833 64.963,132.833 64.763 C 132.833 64.564,132.612 64.217,132.340 63.992 C 132.066 63.764,131.844 63.415,131.840 63.203 C 131.837 62.994,131.721 62.780,131.583 62.727 C 131.446 62.674,131.333 62.524,131.333 62.394 C 131.333 62.263,131.221 62.113,131.083 62.060 C 130.946 62.008,130.833 61.802,130.833 61.603 C 130.833 61.144,130.389 60.500,130.074 60.500 C 129.922 60.500,129.833 60.329,129.833 60.037 C 129.833 59.761,129.642 59.364,129.357 59.053 C 129.095 58.766,128.835 58.412,128.779 58.266 C 128.723 58.120,128.600 58.000,128.505 58.000 C 128.411 58.000,128.333 57.859,128.333 57.687 C 128.333 57.515,128.221 57.281,128.083 57.167 C 127.946 57.053,127.833 56.823,127.833 56.658 C 127.833 56.492,127.608 56.196,127.333 56.000 C 127.025 55.780,126.833 55.497,126.833 55.259 C 126.833 55.047,126.728 54.787,126.600 54.680 C 126.471 54.574,126.320 54.302,126.263 54.076 C 126.207 53.851,126.087 53.667,125.997 53.667 C 125.907 53.667,125.833 53.552,125.833 53.411 C 125.833 53.271,125.721 53.113,125.583 53.060 C 125.446 53.008,125.333 52.869,125.333 52.753 C 125.333 52.636,125.221 52.447,125.083 52.333 C 124.946 52.219,124.833 51.997,124.833 51.839 C 124.833 51.681,124.689 51.421,124.512 51.261 C 124.335 51.101,124.070 50.733,123.924 50.443 C 123.777 50.154,123.596 49.804,123.522 49.667 C 123.447 49.529,123.312 49.267,123.221 49.083 C 123.130 48.900,122.893 48.676,122.695 48.585 C 122.496 48.495,122.333 48.291,122.333 48.132 C 122.333 47.777,121.682 46.500,121.501 46.500 C 121.429 46.500,121.326 46.325,121.272 46.112 C 121.219 45.899,120.985 45.520,120.754 45.270 C 120.523 45.020,120.333 44.673,120.333 44.497 C 120.333 44.322,120.121 43.932,119.861 43.631 C 119.602 43.330,119.342 42.952,119.283 42.792 C 119.225 42.631,119.106 42.500,119.018 42.500 C 118.931 42.500,118.807 42.256,118.742 41.958 C 118.677 41.660,118.406 41.154,118.140 40.833 C 117.349 39.882,117.333 39.858,117.333 39.602 C 117.333 39.467,117.240 39.258,117.125 39.137 C 116.665 38.650,115.703 37.141,115.286 36.250 C 115.157 35.975,114.930 35.650,114.782 35.527 C 114.634 35.404,114.279 34.822,113.992 34.233 C 113.705 33.644,113.328 33.086,113.154 32.993 C 112.980 32.900,112.787 32.620,112.726 32.370 C 112.664 32.121,112.499 31.729,112.357 31.500 C 112.216 31.271,112.087 31.061,112.071 31.034 C 112.054 31.007,111.825 30.947,111.562 30.899 C 111.299 30.852,110.892 30.630,110.658 30.407 C 110.050 29.826,109.226 29.864,108.602 30.500 M187.193 30.580 L 186.665 31.159 186.708 53.538 L 186.750 75.917 201.370 75.959 L 215.990 76.002 216.260 75.481 C 216.592 74.839,216.459 73.914,215.957 73.375 L 215.609 73.000 203.138 73.000 L 190.667 73.000 190.667 64.000 L 190.667 55.000 199.208 54.986 C 209.343 54.970,208.623 55.006,209.039 54.494 C 209.420 54.023,209.385 52.512,208.978 51.860 L 208.753 51.500 199.710 51.500 L 190.667 51.500 190.667 42.667 L 190.667 33.833 203.023 33.833 L 215.378 33.833 215.770 33.411 C 216.669 32.440,216.713 31.326,215.866 30.954 C 215.619 30.846,215.379 30.716,215.333 30.666 C 214.706 29.984,215.046 30.000,201.033 30.000 L 187.720 30.000 187.193 30.580 M226.333 30.480 C 226.104 30.737,225.804 30.984,225.667 31.029 C 225.215 31.177,225.297 74.920,225.750 75.536 C 226.084 75.990,228.688 76.237,229.570 75.899 C 229.806 75.808,229.833 74.727,229.833 65.399 L 229.833 55.000 235.630 55.000 L 241.426 55.000 241.963 55.491 C 242.334 55.830,242.500 56.132,242.500 56.470 C 242.500 56.739,242.612 57.053,242.750 57.167 C 242.887 57.281,243.000 57.555,243.000 57.776 C 243.000 57.996,243.112 58.220,243.250 58.273 C 243.387 58.326,243.500 58.465,243.500 58.583 C 243.500 58.701,243.612 58.841,243.750 58.894 C 243.893 58.949,244.000 59.197,244.000 59.477 C 244.000 59.756,244.107 60.005,244.250 60.060 C 244.397 60.117,244.500 60.367,244.500 60.667 C 244.500 61.015,244.660 61.334,245.000 61.667 C 245.363 62.022,245.500 62.312,245.500 62.727 C 245.500 63.080,245.595 63.334,245.750 63.394 C 245.887 63.446,246.000 63.673,246.000 63.897 C 246.000 64.145,246.197 64.469,246.505 64.728 C 246.883 65.047,247.015 65.305,247.032 65.759 C 247.045 66.092,247.155 66.403,247.278 66.450 C 247.400 66.497,247.500 66.747,247.500 67.006 C 247.500 67.511,247.875 68.000,248.262 68.000 C 248.428 68.000,248.500 68.199,248.500 68.658 C 248.500 69.049,248.595 69.371,248.734 69.450 C 248.862 69.523,248.993 69.769,249.025 69.996 C 249.086 70.428,249.547 71.000,249.833 71.000 C 249.925 71.000,250.000 71.302,250.000 71.672 C 250.000 72.115,250.085 72.376,250.250 72.440 C 250.393 72.494,250.500 72.743,250.500 73.018 C 250.500 73.283,250.631 73.638,250.792 73.806 C 251.195 74.229,251.500 74.780,251.500 75.086 C 251.500 75.228,251.612 75.387,251.750 75.440 C 251.887 75.492,252.000 75.640,252.000 75.768 C 252.000 75.952,252.365 76.000,253.750 76.000 C 255.371 76.000,255.500 75.976,255.500 75.677 C 255.500 75.499,255.575 75.307,255.667 75.250 C 256.011 75.037,255.850 74.037,255.417 73.696 C 255.172 73.504,255.000 73.198,255.000 72.955 C 255.000 72.727,254.887 72.447,254.750 72.333 C 254.612 72.219,254.500 71.964,254.500 71.767 C 254.500 71.382,254.077 70.669,253.718 70.450 C 253.598 70.377,253.500 70.138,253.500 69.920 C 253.500 69.702,253.387 69.411,253.250 69.274 C 253.112 69.136,253.000 68.898,253.000 68.744 C 253.000 68.590,252.775 68.181,252.500 67.833 C 252.225 67.486,252.000 67.049,252.000 66.863 C 252.000 66.676,251.887 66.411,251.750 66.274 C 251.612 66.136,251.500 65.878,251.500 65.699 C 251.500 65.353,251.119 64.936,250.954 65.101 C 250.900 65.155,250.894 65.053,250.941 64.875 C 250.988 64.696,250.908 64.431,250.763 64.287 C 250.618 64.142,250.500 63.936,250.500 63.829 C 250.500 63.640,250.114 62.674,249.835 62.167 C 249.759 62.029,249.607 61.938,249.495 61.965 C 249.373 61.994,249.332 61.910,249.393 61.752 C 249.475 61.537,249.002 60.389,248.326 59.167 C 247.887 58.372,247.014 56.523,246.910 56.167 C 246.843 55.938,246.734 55.712,246.667 55.667 C 246.454 55.521,246.300 54.833,246.480 54.833 C 246.573 54.833,246.852 54.646,247.099 54.417 C 247.379 54.157,247.745 54.000,248.068 54.000 C 248.693 54.000,249.778 53.464,250.284 52.906 C 250.486 52.683,250.725 52.500,250.815 52.500 C 251.143 52.500,252.041 51.535,251.911 51.324 C 251.833 51.198,251.850 51.157,251.952 51.221 C 252.184 51.364,253.306 50.251,253.430 49.756 C 253.485 49.537,253.636 49.317,253.765 49.267 C 253.894 49.218,254.000 48.995,254.000 48.773 C 254.000 48.551,254.112 48.326,254.250 48.273 C 254.413 48.210,254.500 47.951,254.500 47.523 C 254.500 47.095,254.587 46.836,254.750 46.773 C 254.962 46.692,255.000 46.089,255.000 42.767 C 255.000 39.514,254.958 38.815,254.750 38.607 C 254.612 38.470,254.500 38.087,254.500 37.757 C 254.500 37.377,254.408 37.121,254.250 37.060 C 254.112 37.008,254.000 36.827,254.000 36.659 C 254.000 36.491,253.920 36.304,253.823 36.244 C 253.726 36.183,253.573 35.973,253.483 35.775 C 253.144 35.032,252.876 34.668,252.198 34.030 C 251.814 33.668,251.500 33.296,251.500 33.202 C 251.500 33.109,251.286 32.958,251.025 32.867 C 250.764 32.776,250.280 32.424,249.951 32.085 C 249.523 31.645,249.196 31.460,248.808 31.442 C 248.509 31.428,248.130 31.285,247.966 31.125 C 247.732 30.897,247.379 30.833,246.342 30.833 C 245.249 30.833,244.881 30.760,244.234 30.417 L 243.450 30.000 235.100 30.006 L 226.750 30.013 226.333 30.480 M275.000 30.118 C 274.587 30.151,274.143 30.215,274.013 30.261 C 273.694 30.374,264.980 30.369,264.867 30.256 C 264.702 30.091,264.312 30.165,264.421 30.340 C 264.491 30.454,264.371 30.474,264.072 30.399 C 263.753 30.319,263.652 30.341,263.734 30.474 C 263.808 30.593,263.760 30.628,263.605 30.568 C 263.014 30.342,263.003 30.785,263.043 53.527 L 263.083 75.917 280.125 75.959 C 296.912 76.001,297.167 75.997,297.167 75.677 C 297.167 75.499,297.242 75.307,297.333 75.250 C 297.425 75.193,297.500 74.668,297.500 74.083 C 297.500 73.498,297.425 72.973,297.333 72.917 C 297.114 72.781,297.107 66.667,297.326 66.667 C 297.769 66.667,297.708 65.478,297.239 64.989 L 296.771 64.500 287.385 64.500 C 278.459 64.500,278.000 64.485,278.000 64.200 C 278.000 64.035,277.917 63.817,277.816 63.716 C 277.681 63.581,277.681 61.133,277.816 54.641 C 278.073 42.290,278.062 32.589,277.792 32.304 C 277.677 32.182,277.583 31.824,277.583 31.508 C 277.583 30.906,276.588 29.979,276.000 30.035 C 275.862 30.048,275.412 30.085,275.000 30.118 M305.208 30.602 L 304.833 31.190 304.833 53.595 L 304.833 76.000 306.482 76.000 C 307.832 76.000,308.149 75.952,308.232 75.736 C 308.288 75.591,308.333 65.515,308.333 53.344 L 308.333 31.215 307.801 30.774 C 307.509 30.532,307.134 30.333,306.968 30.333 C 306.802 30.333,306.667 30.258,306.667 30.167 C 306.667 29.702,305.575 30.027,305.208 30.602 M8.607 31.086 C 8.660 31.222,8.619 31.333,8.518 31.333 C 8.143 31.333,8.270 51.621,8.646 51.822 C 8.989 52.006,28.594 52.081,29.064 51.901 C 29.212 51.844,29.333 51.701,29.333 51.583 C 29.333 51.465,29.446 51.326,29.583 51.273 C 29.961 51.128,29.961 31.985,29.583 31.607 C 29.446 31.470,29.333 31.240,29.333 31.098 C 29.333 30.866,28.230 30.839,18.923 30.838 C 9.783 30.838,8.524 30.868,8.607 31.086 M33.500 53.422 L 33.500 76.000 34.083 76.000 C 34.693 76.000,34.798 75.753,34.340 75.394 C 33.992 75.121,33.853 31.997,34.199 31.709 C 34.380 31.559,50.306 31.367,52.917 31.483 C 53.985 31.530,53.909 30.663,54.000 43.819 C 54.056 51.862,54.141 55.874,54.258 55.992 C 54.377 56.110,58.192 56.169,66.092 56.174 C 77.918 56.183,78.700 56.221,78.960 56.805 C 79.028 56.958,79.063 61.141,79.038 66.100 L 78.992 75.117 78.571 75.308 C 78.267 75.447,74.816 75.500,66.075 75.500 C 55.431 75.500,54.000 75.530,54.000 75.751 C 54.000 75.973,55.518 75.997,67.042 75.959 L 80.083 75.917 80.119 65.857 C 80.152 56.587,80.132 55.766,79.869 55.404 L 79.583 55.010 67.313 55.005 L 55.043 55.000 54.951 54.208 C 54.900 53.773,54.884 48.447,54.915 42.373 C 54.963 33.060,54.935 31.292,54.738 31.095 C 54.542 30.899,52.787 30.859,44.002 30.852 L 33.500 30.844 33.500 53.422 M276.595 31.458 C 276.790 31.989,276.799 64.193,276.605 64.781 C 276.539 64.981,276.357 65.179,276.201 65.220 C 276.044 65.261,280.395 65.303,285.869 65.314 C 295.528 65.333,295.827 65.343,295.994 65.656 C 296.192 66.026,296.234 74.807,296.039 75.102 C 295.784 75.489,264.354 75.480,264.070 75.093 C 263.766 74.677,263.720 66.191,264.019 65.631 C 264.168 65.353,264.151 65.255,263.936 65.134 C 263.656 64.977,263.500 31.389,263.778 31.111 C 263.839 31.050,266.710 31.000,270.158 31.000 L 276.427 31.000 276.595 31.458 M176.083 31.646 C 176.727 31.783,176.875 32.405,176.300 32.559 C 176.089 32.616,173.051 32.663,169.548 32.664 C 163.422 32.667,163.172 32.679,163.006 32.989 C 162.890 33.206,162.833 40.046,162.831 53.947 C 162.828 75.252,162.834 75.052,162.208 74.818 L 161.833 74.677 161.833 54.042 C 161.833 35.636,161.805 33.367,161.574 33.037 L 161.314 32.667 155.116 32.664 C 151.706 32.663,148.816 32.597,148.692 32.519 C 148.349 32.302,148.534 31.779,149.001 31.649 C 149.522 31.504,175.402 31.501,176.083 31.646 M214.349 31.675 C 214.734 31.881,214.767 32.426,214.403 32.566 C 214.258 32.621,208.607 32.667,201.846 32.667 C 189.559 32.667,189.551 32.667,189.234 33.017 C 188.930 33.354,188.917 33.757,188.917 42.699 L 188.917 52.029 189.384 52.431 L 189.852 52.833 198.656 52.833 C 206.541 52.833,207.482 52.861,207.682 53.101 C 208.256 53.793,207.782 53.833,198.760 53.843 C 189.608 53.853,189.197 53.887,188.982 54.667 C 188.918 54.896,188.859 59.146,188.850 64.112 L 188.833 73.141 189.265 73.654 L 189.696 74.167 201.981 74.167 C 214.564 74.167,214.968 74.186,214.476 74.779 C 214.248 75.054,188.977 75.110,188.261 74.837 L 187.833 74.675 187.836 53.379 C 187.837 41.666,187.894 31.998,187.961 31.894 C 188.028 31.790,188.233 31.668,188.417 31.623 C 189.106 31.453,214.027 31.503,214.349 31.675 M245.479 31.888 C 245.880 32.041,246.447 32.167,246.738 32.167 C 247.029 32.167,247.342 32.242,247.434 32.334 C 247.527 32.427,248.127 32.820,248.769 33.209 C 250.186 34.068,251.613 35.592,252.251 36.927 C 252.511 37.471,252.812 38.029,252.919 38.167 C 253.987 39.534,253.731 45.840,252.519 48.000 C 252.236 48.504,251.952 49.029,251.888 49.167 C 251.494 50.013,250.084 51.326,248.500 52.320 C 247.838 52.735,246.661 53.143,245.834 53.244 C 244.371 53.422,243.827 54.479,244.656 55.532 C 244.834 55.758,245.029 56.140,245.089 56.381 C 245.150 56.622,245.305 56.907,245.433 57.014 C 245.562 57.120,245.667 57.284,245.667 57.378 C 245.667 57.625,246.811 59.966,246.984 60.073 C 247.064 60.123,247.181 60.370,247.244 60.623 C 247.408 61.287,248.353 63.167,248.523 63.167 C 248.602 63.167,248.667 63.281,248.667 63.421 C 248.667 63.646,249.585 65.660,249.994 66.333 C 250.247 66.749,251.000 68.469,251.000 68.631 C 251.000 68.714,251.143 68.911,251.318 69.070 C 251.493 69.228,251.686 69.559,251.746 69.804 C 251.851 70.232,252.660 71.979,252.995 72.500 C 253.373 73.088,253.849 74.384,253.767 74.600 C 253.639 74.932,253.007 74.890,252.897 74.542 C 252.789 74.201,251.949 72.437,251.607 71.833 C 251.478 71.604,251.198 71.004,250.987 70.500 C 250.775 69.996,250.429 69.345,250.218 69.053 C 250.006 68.761,249.833 68.449,249.833 68.360 C 249.833 68.183,248.996 66.337,248.612 65.667 C 248.481 65.438,248.209 64.875,248.009 64.417 C 247.809 63.958,247.534 63.396,247.397 63.167 C 247.260 62.938,247.034 62.487,246.894 62.167 C 246.660 61.628,244.813 57.762,244.498 57.149 C 244.422 57.001,244.054 56.279,243.679 55.543 C 242.714 53.649,243.174 53.750,235.493 53.750 C 229.623 53.750,229.029 53.776,228.618 54.046 L 228.167 54.341 228.164 64.379 C 228.162 74.477,228.136 74.916,227.563 74.806 C 227.259 74.747,227.249 74.138,227.208 53.218 L 227.165 31.690 227.541 31.610 C 228.675 31.367,244.767 31.617,245.479 31.888 M28.095 31.905 C 28.459 32.269,28.451 50.695,28.086 50.997 C 27.827 51.213,9.990 51.280,9.437 51.068 C 9.009 50.904,8.986 50.307,9.036 40.918 L 9.083 31.920 9.583 31.813 C 10.723 31.569,27.845 31.654,28.095 31.905 M93.917 53.250 L 93.917 74.750 93.500 74.750 L 93.083 74.750 93.040 53.417 C 92.995 30.692,92.974 31.616,93.541 31.697 L 93.917 31.750 93.917 53.250 M110.603 31.973 C 110.798 32.136,111.015 32.452,111.085 32.676 C 111.156 32.900,111.492 33.496,111.833 34.000 C 112.174 34.504,112.694 35.329,112.988 35.833 C 113.282 36.337,113.741 37.087,114.009 37.500 C 114.276 37.912,114.546 38.362,114.608 38.500 C 114.785 38.889,115.735 40.244,115.875 40.306 C 115.944 40.336,116.000 40.451,116.000 40.561 C 116.000 40.753,116.961 42.362,117.331 42.790 C 117.429 42.903,117.563 43.134,117.630 43.302 C 117.753 43.618,119.298 46.118,119.949 47.057 C 120.150 47.346,120.498 47.930,120.722 48.353 C 120.947 48.776,121.382 49.497,121.690 49.954 C 122.301 50.861,123.106 52.135,123.500 52.817 C 123.637 53.055,124.060 53.737,124.439 54.333 C 124.818 54.929,125.339 55.810,125.597 56.292 C 125.855 56.773,126.121 57.167,126.189 57.167 C 126.256 57.167,126.549 57.635,126.838 58.208 C 127.127 58.781,127.493 59.400,127.650 59.583 C 127.808 59.767,128.025 60.104,128.134 60.333 C 128.362 60.815,128.504 61.044,129.427 62.413 C 129.799 62.965,130.153 63.549,130.214 63.712 C 130.276 63.874,130.627 64.451,130.996 64.994 C 131.365 65.537,131.667 66.031,131.667 66.092 C 131.667 66.153,132.023 66.747,132.458 67.412 C 132.894 68.077,133.655 69.269,134.150 70.060 C 135.096 71.574,135.385 71.754,135.918 71.165 C 136.209 70.844,136.217 70.034,136.117 51.521 C 136.006 30.852,135.991 31.283,136.782 31.768 C 137.152 31.995,137.348 74.164,136.980 74.607 C 136.308 75.417,135.432 74.508,133.687 71.187 C 133.560 70.947,133.323 70.600,133.160 70.417 C 132.996 70.233,132.682 69.746,132.461 69.333 C 132.240 68.921,131.765 68.122,131.405 67.559 C 131.045 66.996,130.375 65.926,129.917 65.182 C 129.458 64.438,128.842 63.474,128.546 63.040 C 128.251 62.605,127.865 61.950,127.689 61.583 C 127.512 61.217,127.097 60.542,126.767 60.084 C 126.437 59.626,126.167 59.185,126.167 59.105 C 126.167 59.025,125.848 58.498,125.458 57.935 C 124.542 56.611,124.387 56.357,124.103 55.729 C 123.973 55.442,123.783 55.155,123.681 55.092 C 123.578 55.028,123.299 54.588,123.062 54.113 C 122.824 53.638,122.495 53.100,122.331 52.917 C 122.167 52.733,121.791 52.133,121.496 51.583 C 121.201 51.033,120.781 50.371,120.563 50.112 C 120.345 49.853,120.167 49.568,120.167 49.478 C 120.167 49.389,119.735 48.663,119.208 47.866 C 118.681 47.069,118.201 46.298,118.141 46.153 C 118.080 46.007,117.745 45.445,117.395 44.903 C 117.046 44.360,116.645 43.714,116.505 43.467 C 116.365 43.220,115.725 42.180,115.083 41.158 C 114.442 40.135,113.691 38.899,113.415 38.411 C 113.139 37.923,112.745 37.345,112.540 37.126 C 112.335 36.907,112.167 36.651,112.167 36.556 C 112.167 36.255,111.174 35.000,110.936 35.000 C 110.239 35.000,110.254 34.603,110.167 55.151 L 110.083 74.750 109.625 74.803 L 109.167 74.855 109.167 53.261 L 109.167 31.667 109.708 31.672 C 110.006 31.675,110.409 31.811,110.603 31.973 M306.917 53.250 L 306.917 74.750 306.500 74.750 L 306.083 74.750 306.040 53.417 C 305.995 30.692,305.974 31.616,306.541 31.697 L 306.917 31.750 306.917 53.250 M323.792 32.250 C 323.998 32.568,324.167 32.891,324.167 32.966 C 324.167 33.042,324.322 33.271,324.512 33.475 C 324.702 33.678,325.067 34.244,325.323 34.730 C 325.579 35.217,326.099 36.082,326.478 36.653 C 326.857 37.223,327.167 37.723,327.167 37.764 C 327.167 37.804,327.458 38.268,327.813 38.794 C 328.169 39.320,328.590 40.007,328.749 40.321 C 328.909 40.635,329.293 41.253,329.603 41.694 C 329.913 42.136,330.168 42.554,330.170 42.623 C 330.173 42.774,331.060 44.143,331.385 44.500 C 331.510 44.637,331.660 44.881,331.718 45.041 C 331.775 45.201,332.103 45.764,332.446 46.291 C 332.788 46.819,333.210 47.512,333.383 47.833 C 333.556 48.154,333.915 48.694,334.182 49.032 C 334.448 49.370,334.667 49.731,334.667 49.833 C 334.667 49.935,334.985 50.483,335.373 51.051 C 335.761 51.619,336.277 52.453,336.519 52.905 C 336.760 53.357,337.100 53.882,337.274 54.072 C 337.448 54.261,337.801 54.841,338.058 55.361 C 338.315 55.880,338.669 56.435,338.846 56.595 C 339.022 56.754,339.168 56.967,339.170 57.067 C 339.172 57.168,339.415 57.616,339.712 58.063 C 340.008 58.510,340.400 59.127,340.583 59.435 C 341.808 61.491,342.972 63.403,343.566 64.333 C 343.946 64.929,344.347 65.567,344.457 65.750 C 344.568 65.933,345.166 66.893,345.787 67.882 C 346.408 68.872,347.047 69.926,347.206 70.224 C 347.712 71.172,348.408 71.728,348.816 71.509 L 349.165 71.322 349.208 51.536 L 349.250 31.750 349.750 31.750 L 350.250 31.750 350.292 53.202 C 350.333 73.973,350.325 74.660,350.024 74.820 C 349.494 75.104,348.559 74.741,348.361 74.175 C 348.268 73.909,347.909 73.254,347.562 72.721 C 347.215 72.187,346.787 71.487,346.611 71.167 C 346.434 70.846,346.087 70.283,345.840 69.917 C 345.592 69.550,345.337 69.137,345.274 69.000 C 345.210 68.862,344.638 67.925,344.002 66.917 C 342.719 64.881,341.633 63.126,340.344 61.003 C 339.872 60.226,339.339 59.433,339.159 59.242 C 338.980 59.051,338.833 58.800,338.833 58.683 C 338.833 58.567,338.458 57.929,338.000 57.266 C 337.542 56.603,337.167 56.001,337.167 55.928 C 337.167 55.855,336.840 55.297,336.441 54.689 C 336.043 54.081,335.574 53.321,335.400 53.000 C 335.226 52.679,334.877 52.170,334.625 51.869 C 334.373 51.568,334.167 51.240,334.167 51.139 C 334.167 51.039,333.883 50.536,333.537 50.020 C 333.191 49.505,332.815 48.896,332.702 48.667 C 332.589 48.438,332.366 48.052,332.207 47.811 C 331.568 46.845,329.560 43.600,329.194 42.946 C 328.981 42.563,328.711 42.137,328.596 42.000 C 328.480 41.862,327.958 41.037,327.436 40.167 C 326.207 38.119,326.187 38.086,325.500 37.016 C 325.179 36.516,324.799 35.914,324.654 35.678 C 324.338 35.163,323.807 35.050,323.437 35.420 C 323.191 35.667,323.167 37.413,323.167 55.167 C 323.167 74.469,323.164 74.645,322.835 74.750 C 322.652 74.807,322.427 74.808,322.335 74.751 C 322.145 74.634,322.089 31.967,322.278 31.778 C 322.618 31.437,323.429 31.690,323.792 32.250 M366.500 43.533 C 366.563 52.505,366.632 55.365,366.787 55.521 C 367.233 55.966,367.336 55.873,373.957 49.062 C 376.067 46.891,381.191 41.592,383.750 38.932 C 391.092 31.304,391.090 31.306,391.413 31.828 C 391.514 31.991,390.599 33.055,388.396 35.333 C 387.732 36.021,386.875 36.921,386.493 37.333 C 386.110 37.746,384.545 39.396,383.014 41.000 C 381.483 42.604,379.754 44.442,379.172 45.083 C 378.589 45.725,377.843 46.522,377.515 46.854 C 375.044 49.350,375.068 49.011,377.152 51.917 C 378.065 53.189,379.262 54.916,380.149 56.239 C 380.461 56.703,380.854 57.181,381.024 57.301 C 381.194 57.421,381.333 57.587,381.333 57.671 C 381.333 57.854,382.494 59.557,383.081 60.234 C 383.311 60.501,383.500 60.810,383.500 60.922 C 383.500 61.034,383.616 61.222,383.757 61.339 C 383.898 61.456,384.433 62.182,384.946 62.953 C 385.458 63.724,385.963 64.443,386.067 64.552 C 386.172 64.661,386.500 65.133,386.797 65.601 C 387.094 66.069,387.486 66.587,387.669 66.752 C 387.851 66.917,388.000 67.112,388.000 67.187 C 388.000 67.261,388.562 68.093,389.248 69.036 C 389.934 69.979,390.804 71.219,391.180 71.792 C 391.556 72.365,391.928 72.833,392.006 72.833 C 392.153 72.833,393.000 74.407,393.000 74.680 C 393.000 75.111,392.013 74.811,391.686 74.281 C 391.498 73.977,391.195 73.593,391.012 73.427 C 390.829 73.262,390.536 72.852,390.362 72.517 C 390.187 72.182,389.661 71.384,389.193 70.745 C 387.746 68.770,385.758 65.979,383.793 63.165 C 383.634 62.937,383.169 62.300,382.760 61.750 C 382.351 61.200,381.551 60.056,380.983 59.208 C 380.415 58.360,379.887 57.667,379.810 57.667 C 379.734 57.667,379.569 57.422,379.444 57.122 C 379.318 56.822,378.924 56.233,378.566 55.813 C 378.209 55.392,377.711 54.719,377.459 54.316 C 376.550 52.862,375.407 51.352,374.939 50.986 C 374.251 50.448,373.869 50.703,370.838 53.724 C 369.444 55.113,368.179 56.372,368.027 56.521 C 367.875 56.670,367.469 57.091,367.125 57.457 L 366.500 58.122 366.500 66.361 C 366.500 74.883,366.486 75.052,365.819 74.878 C 365.507 74.796,365.500 74.338,365.500 53.219 L 365.500 31.645 365.958 31.697 L 366.417 31.750 366.500 43.533 M91.451 33.375 C 91.411 33.581,91.379 33.412,91.379 33.000 C 91.379 32.587,91.411 32.419,91.451 32.625 C 91.491 32.831,91.491 33.169,91.451 33.375 M228.429 32.929 C 228.053 33.304,228.028 51.914,228.403 52.426 C 228.725 52.866,243.719 53.025,244.738 52.599 C 245.058 52.465,245.673 52.303,246.104 52.238 C 247.710 51.997,251.333 48.940,251.333 47.826 C 251.333 47.735,251.519 47.366,251.745 47.008 C 252.854 45.251,252.860 40.091,251.754 38.340 C 251.523 37.973,251.333 37.568,251.333 37.440 C 251.333 37.312,251.221 37.114,251.083 37.000 C 250.946 36.886,250.833 36.698,250.833 36.583 C 250.833 36.289,248.609 34.223,248.138 34.080 C 247.925 34.015,247.600 33.833,247.417 33.675 C 246.345 32.751,245.449 32.667,236.758 32.667 C 229.646 32.667,228.659 32.698,228.429 32.929 M245.500 34.071 C 245.500 34.459,245.989 34.833,246.494 34.833 C 246.758 34.833,247.006 34.943,247.060 35.083 C 247.113 35.221,247.309 35.333,247.495 35.333 C 247.681 35.333,247.833 35.403,247.833 35.489 C 247.833 35.574,247.983 35.692,248.167 35.750 C 248.350 35.808,248.500 35.963,248.500 36.095 C 248.500 36.226,248.612 36.333,248.750 36.333 C 248.887 36.333,249.000 36.414,249.000 36.513 C 249.000 36.612,249.225 36.917,249.500 37.192 C 249.775 37.467,250.000 37.837,250.000 38.013 C 250.000 38.189,250.112 38.333,250.250 38.333 C 250.442 38.333,250.500 38.548,250.500 39.262 C 250.500 39.865,250.588 40.278,250.750 40.440 C 250.944 40.635,251.000 41.132,251.000 42.667 C 251.000 44.201,250.944 44.699,250.750 44.893 C 250.612 45.030,250.500 45.433,250.500 45.788 C 250.500 46.143,250.420 46.514,250.322 46.612 C 250.224 46.710,250.126 46.893,250.105 47.020 C 250.043 47.397,249.601 48.000,249.388 48.000 C 249.279 48.000,249.144 48.142,249.089 48.315 C 248.917 48.857,247.972 49.713,247.292 49.941 C 247.131 49.995,247.000 50.143,247.000 50.269 C 247.000 50.427,246.791 50.500,246.339 50.500 C 245.842 50.500,245.537 50.624,245.109 51.000 L 244.539 51.500 237.186 51.500 L 229.833 51.500 229.833 42.667 L 229.833 33.833 237.667 33.833 C 244.344 33.833,245.500 33.868,245.500 34.071 M8.444 55.111 C 8.383 55.172,8.333 59.898,8.333 65.612 L 8.333 76.002 19.042 75.960 L 29.750 75.917 29.793 65.870 C 29.831 57.044,29.805 55.812,29.585 55.727 C 29.446 55.674,29.333 55.489,29.333 55.316 C 29.333 54.995,8.762 54.793,8.444 55.111 M28.097 56.574 C 28.468 57.082,28.447 74.430,28.074 74.963 L 27.814 75.333 18.842 75.333 C 10.349 75.333,9.850 75.317,9.488 75.024 L 9.106 74.714 9.095 65.800 C 9.083 56.295,9.070 56.447,9.887 56.279 C 11.262 55.996,27.871 56.265,28.097 56.574 " stroke="none" fill="#ffffff" fill-rule="evenodd"></path><path id="path4" d="M149.001 31.649 C 148.534 31.779,148.349 32.302,148.692 32.519 C 148.816 32.597,151.706 32.663,155.116 32.664 L 161.314 32.667 161.574 33.037 C 161.805 33.367,161.833 35.636,161.833 54.042 L 161.833 74.677 162.208 74.818 C 162.834 75.052,162.828 75.252,162.831 53.947 C 162.833 40.046,162.890 33.206,163.006 32.989 C 163.172 32.679,163.422 32.667,169.548 32.664 C 173.051 32.663,176.089 32.616,176.300 32.559 C 176.875 32.405,176.727 31.783,176.083 31.646 C 175.402 31.501,149.522 31.504,149.001 31.649 M188.417 31.623 C 188.233 31.668,188.028 31.790,187.961 31.894 C 187.894 31.998,187.837 41.666,187.836 53.379 L 187.833 74.675 188.261 74.837 C 188.977 75.110,214.248 75.054,214.476 74.779 C 214.968 74.186,214.564 74.167,201.981 74.167 L 189.696 74.167 189.265 73.654 L 188.833 73.141 188.850 64.112 C 188.859 59.146,188.918 54.896,188.982 54.667 C 189.197 53.887,189.608 53.853,198.760 53.843 C 207.782 53.833,208.256 53.793,207.682 53.101 C 207.482 52.861,206.541 52.833,198.656 52.833 L 189.852 52.833 189.384 52.431 L 188.917 52.029 188.917 42.699 C 188.917 33.757,188.930 33.354,189.234 33.017 C 189.551 32.667,189.559 32.667,201.846 32.667 C 208.607 32.667,214.258 32.621,214.403 32.566 C 214.767 32.426,214.734 31.881,214.349 31.675 C 214.027 31.503,189.106 31.453,188.417 31.623 M227.541 31.610 L 227.165 31.690 227.208 53.218 C 227.249 74.138,227.259 74.747,227.563 74.806 C 228.136 74.916,228.162 74.477,228.164 64.379 L 228.167 54.341 228.618 54.046 C 229.029 53.776,229.623 53.750,235.493 53.750 C 243.174 53.750,242.714 53.649,243.679 55.543 C 244.054 56.279,244.422 57.001,244.498 57.149 C 244.813 57.762,246.660 61.628,246.894 62.167 C 247.034 62.487,247.260 62.938,247.397 63.167 C 247.534 63.396,247.809 63.958,248.009 64.417 C 248.209 64.875,248.481 65.438,248.612 65.667 C 248.996 66.337,249.833 68.183,249.833 68.360 C 249.833 68.449,250.006 68.761,250.218 69.053 C 250.429 69.345,250.775 69.996,250.987 70.500 C 251.198 71.004,251.478 71.604,251.607 71.833 C 251.949 72.437,252.789 74.201,252.897 74.542 C 253.007 74.890,253.639 74.932,253.767 74.600 C 253.849 74.384,253.373 73.088,252.995 72.500 C 252.660 71.979,251.851 70.232,251.746 69.804 C 251.686 69.559,251.493 69.228,251.318 69.070 C 251.143 68.911,251.000 68.714,251.000 68.631 C 251.000 68.469,250.247 66.749,249.994 66.333 C 249.585 65.660,248.667 63.646,248.667 63.421 C 248.667 63.281,248.602 63.167,248.523 63.167 C 248.353 63.167,247.408 61.287,247.244 60.623 C 247.181 60.370,247.064 60.123,246.984 60.073 C 246.811 59.966,245.667 57.625,245.667 57.378 C 245.667 57.284,245.562 57.120,245.433 57.014 C 245.305 56.907,245.150 56.622,245.089 56.381 C 245.029 56.140,244.834 55.758,244.656 55.532 C 243.827 54.479,244.371 53.422,245.834 53.244 C 246.661 53.143,247.838 52.735,248.500 52.320 C 250.084 51.326,251.494 50.013,251.888 49.167 C 251.952 49.029,252.236 48.504,252.519 48.000 C 253.731 45.840,253.987 39.534,252.919 38.167 C 252.812 38.029,252.511 37.471,252.251 36.927 C 251.613 35.592,250.186 34.068,248.769 33.209 C 248.127 32.820,247.527 32.427,247.434 32.334 C 247.342 32.242,247.029 32.167,246.738 32.167 C 246.447 32.167,245.880 32.041,245.479 31.888 C 244.767 31.617,228.675 31.367,227.541 31.610 M93.081 31.863 C 93.035 31.984,93.017 41.683,93.040 53.417 L 93.083 74.750 93.500 74.750 L 93.917 74.750 93.917 53.250 L 93.917 31.750 93.541 31.697 C 93.334 31.667,93.127 31.742,93.081 31.863 M109.167 53.261 L 109.167 74.855 109.625 74.803 L 110.083 74.750 110.167 55.151 C 110.254 34.603,110.239 35.000,110.936 35.000 C 111.174 35.000,112.167 36.255,112.167 36.556 C 112.167 36.651,112.335 36.907,112.540 37.126 C 112.745 37.345,113.139 37.923,113.415 38.411 C 113.691 38.899,114.442 40.135,115.083 41.158 C 115.725 42.180,116.365 43.220,116.505 43.467 C 116.645 43.714,117.046 44.360,117.395 44.903 C 117.745 45.445,118.080 46.007,118.141 46.153 C 118.201 46.298,118.681 47.069,119.208 47.866 C 119.735 48.663,120.167 49.389,120.167 49.478 C 120.167 49.568,120.345 49.853,120.563 50.112 C 120.781 50.371,121.201 51.033,121.496 51.583 C 121.791 52.133,122.167 52.733,122.331 52.917 C 122.495 53.100,122.824 53.638,123.062 54.113 C 123.299 54.588,123.578 55.028,123.681 55.092 C 123.783 55.155,123.973 55.442,124.103 55.729 C 124.387 56.357,124.542 56.611,125.458 57.935 C 125.848 58.498,126.167 59.025,126.167 59.105 C 126.167 59.185,126.437 59.626,126.767 60.084 C 127.097 60.542,127.512 61.217,127.689 61.583 C 127.865 61.950,128.251 62.605,128.546 63.040 C 128.842 63.474,129.458 64.438,129.917 65.182 C 130.375 65.926,131.045 66.996,131.405 67.559 C 131.765 68.122,132.240 68.921,132.461 69.333 C 132.682 69.746,132.996 70.233,133.160 70.417 C 133.323 70.600,133.560 70.947,133.687 71.187 C 135.432 74.508,136.308 75.417,136.980 74.607 C 137.348 74.164,137.152 31.995,136.782 31.768 C 135.991 31.283,136.006 30.852,136.117 51.521 C 136.217 70.034,136.209 70.844,135.918 71.165 C 135.385 71.754,135.096 71.574,134.150 70.060 C 133.655 69.269,132.894 68.077,132.458 67.412 C 132.023 66.747,131.667 66.153,131.667 66.092 C 131.667 66.031,131.365 65.537,130.996 64.994 C 130.627 64.451,130.276 63.874,130.214 63.712 C 130.153 63.549,129.799 62.965,129.427 62.413 C 128.504 61.044,128.362 60.815,128.134 60.333 C 128.025 60.104,127.808 59.767,127.650 59.583 C 127.493 59.400,127.127 58.781,126.838 58.208 C 126.549 57.635,126.256 57.167,126.189 57.167 C 126.121 57.167,125.855 56.773,125.597 56.292 C 125.339 55.810,124.818 54.929,124.439 54.333 C 124.060 53.737,123.637 53.055,123.500 52.817 C 123.106 52.135,122.301 50.861,121.690 49.954 C 121.382 49.497,120.947 48.776,120.722 48.353 C 120.498 47.930,120.150 47.346,119.949 47.057 C 119.298 46.118,117.753 43.618,117.630 43.302 C 117.563 43.134,117.429 42.903,117.331 42.790 C 116.961 42.362,116.000 40.753,116.000 40.561 C 116.000 40.451,115.944 40.336,115.875 40.306 C 115.735 40.244,114.785 38.889,114.608 38.500 C 114.546 38.362,114.276 37.912,114.009 37.500 C 113.741 37.087,113.282 36.337,112.988 35.833 C 112.694 35.329,112.174 34.504,111.833 34.000 C 111.492 33.496,111.156 32.900,111.085 32.676 C 110.901 32.092,110.335 31.679,109.708 31.672 L 109.167 31.667 109.167 53.261 M306.081 31.863 C 306.035 31.984,306.017 41.683,306.040 53.417 L 306.083 74.750 306.500 74.750 L 306.917 74.750 306.917 53.250 L 306.917 31.750 306.541 31.697 C 306.334 31.667,306.127 31.742,306.081 31.863 M322.278 31.778 C 322.089 31.967,322.145 74.634,322.335 74.751 C 322.427 74.808,322.652 74.807,322.835 74.750 C 323.164 74.645,323.167 74.469,323.167 55.167 C 323.167 37.413,323.191 35.667,323.437 35.420 C 323.807 35.050,324.338 35.163,324.654 35.678 C 324.799 35.914,325.179 36.516,325.500 37.016 C 326.187 38.086,326.207 38.119,327.436 40.167 C 327.958 41.037,328.480 41.862,328.596 42.000 C 328.711 42.137,328.981 42.563,329.194 42.946 C 329.560 43.600,331.568 46.845,332.207 47.811 C 332.366 48.052,332.589 48.438,332.702 48.667 C 332.815 48.896,333.191 49.505,333.537 50.020 C 333.883 50.536,334.167 51.039,334.167 51.139 C 334.167 51.240,334.373 51.568,334.625 51.869 C 334.877 52.170,335.226 52.679,335.400 53.000 C 335.574 53.321,336.043 54.081,336.441 54.689 C 336.840 55.297,337.167 55.855,337.167 55.928 C 337.167 56.001,337.542 56.603,338.000 57.266 C 338.458 57.929,338.833 58.567,338.833 58.683 C 338.833 58.800,338.980 59.051,339.159 59.242 C 339.339 59.433,339.872 60.226,340.344 61.003 C 341.633 63.126,342.719 64.881,344.002 66.917 C 344.638 67.925,345.210 68.862,345.274 69.000 C 345.337 69.137,345.592 69.550,345.840 69.917 C 346.087 70.283,346.434 70.846,346.611 71.167 C 346.787 71.487,347.215 72.187,347.562 72.721 C 347.909 73.254,348.268 73.909,348.361 74.175 C 348.559 74.741,349.494 75.104,350.024 74.820 C 350.325 74.660,350.333 73.973,350.292 53.202 L 350.250 31.750 349.750 31.750 L 349.250 31.750 349.208 51.536 L 349.165 71.322 348.816 71.509 C 348.408 71.728,347.712 71.172,347.206 70.224 C 347.047 69.926,346.408 68.872,345.787 67.882 C 345.166 66.893,344.568 65.933,344.457 65.750 C 344.347 65.567,343.946 64.929,343.566 64.333 C 342.972 63.403,341.808 61.491,340.583 59.435 C 340.400 59.127,340.008 58.510,339.712 58.063 C 339.415 57.616,339.172 57.168,339.170 57.067 C 339.168 56.967,339.022 56.754,338.846 56.595 C 338.669 56.435,338.315 55.880,338.058 55.361 C 337.801 54.841,337.448 54.261,337.274 54.072 C 337.100 53.882,336.760 53.357,336.519 52.905 C 336.277 52.453,335.761 51.619,335.373 51.051 C 334.985 50.483,334.667 49.935,334.667 49.833 C 334.667 49.731,334.448 49.370,334.182 49.032 C 333.915 48.694,333.556 48.154,333.383 47.833 C 333.210 47.512,332.788 46.819,332.446 46.291 C 332.103 45.764,331.775 45.201,331.718 45.041 C 331.660 44.881,331.510 44.637,331.385 44.500 C 331.060 44.143,330.173 42.774,330.170 42.623 C 330.168 42.554,329.913 42.136,329.603 41.694 C 329.293 41.253,328.909 40.635,328.749 40.321 C 328.590 40.007,328.169 39.320,327.813 38.794 C 327.458 38.268,327.167 37.804,327.167 37.764 C 327.167 37.723,326.857 37.223,326.478 36.653 C 326.099 36.082,325.579 35.217,325.323 34.730 C 325.067 34.244,324.702 33.678,324.512 33.475 C 324.322 33.271,324.167 33.042,324.167 32.966 C 324.167 32.187,322.756 31.300,322.278 31.778 M365.500 53.219 C 365.500 74.338,365.507 74.796,365.819 74.878 C 366.486 75.052,366.500 74.883,366.500 66.361 L 366.500 58.122 367.125 57.457 C 367.469 57.091,367.875 56.670,368.027 56.521 C 368.179 56.372,369.444 55.113,370.838 53.724 C 373.869 50.703,374.251 50.448,374.939 50.986 C 375.407 51.352,376.550 52.862,377.459 54.316 C 377.711 54.719,378.209 55.392,378.566 55.813 C 378.924 56.233,379.318 56.822,379.444 57.122 C 379.569 57.422,379.734 57.667,379.810 57.667 C 379.887 57.667,380.415 58.360,380.983 59.208 C 381.551 60.056,382.351 61.200,382.760 61.750 C 383.169 62.300,383.634 62.937,383.793 63.165 C 385.758 65.979,387.746 68.770,389.193 70.745 C 389.661 71.384,390.187 72.182,390.362 72.517 C 390.536 72.852,390.829 73.262,391.012 73.427 C 391.195 73.593,391.498 73.977,391.686 74.281 C 392.013 74.811,393.000 75.111,393.000 74.680 C 393.000 74.407,392.153 72.833,392.006 72.833 C 391.928 72.833,391.556 72.365,391.180 71.792 C 390.804 71.219,389.934 69.979,389.248 69.036 C 388.562 68.093,388.000 67.261,388.000 67.187 C 388.000 67.112,387.851 66.917,387.669 66.752 C 387.486 66.587,387.094 66.069,386.797 65.601 C 386.500 65.133,386.172 64.661,386.067 64.552 C 385.963 64.443,385.458 63.724,384.946 62.953 C 384.433 62.182,383.898 61.456,383.757 61.339 C 383.616 61.222,383.500 61.034,383.500 60.922 C 383.500 60.810,383.311 60.501,383.081 60.234 C 382.494 59.557,381.333 57.854,381.333 57.671 C 381.333 57.587,381.194 57.421,381.024 57.301 C 380.854 57.181,380.461 56.703,380.149 56.239 C 379.262 54.916,378.065 53.189,377.152 51.917 C 375.068 49.011,375.044 49.350,377.515 46.854 C 377.843 46.522,378.589 45.725,379.172 45.083 C 379.754 44.442,381.483 42.604,383.014 41.000 C 384.545 39.396,386.110 37.746,386.493 37.333 C 386.875 36.921,387.732 36.021,388.396 35.333 C 391.427 32.197,391.809 31.666,391.032 31.667 C 390.877 31.667,389.475 32.990,387.917 34.607 C 386.358 36.224,384.483 38.171,383.750 38.932 C 381.191 41.592,376.067 46.891,373.957 49.062 C 367.336 55.873,367.233 55.966,366.787 55.521 C 366.632 55.365,366.563 52.505,366.500 43.533 L 366.417 31.750 365.958 31.697 L 365.500 31.645 365.500 53.219 M368.057 33.583 C 368.058 34.317,368.087 34.596,368.122 34.204 C 368.157 33.812,368.157 33.212,368.121 32.871 C 368.085 32.529,368.057 32.850,368.057 33.583 M245.955 33.027 C 246.576 33.225,247.233 33.517,247.417 33.675 C 247.600 33.833,247.925 34.015,248.138 34.080 C 248.609 34.223,250.833 36.289,250.833 36.583 C 250.833 36.698,250.946 36.886,251.083 37.000 C 251.221 37.114,251.333 37.312,251.333 37.440 C 251.333 37.568,251.523 37.973,251.754 38.340 C 252.860 40.091,252.854 45.251,251.745 47.008 C 251.519 47.366,251.333 47.735,251.333 47.826 C 251.333 48.940,247.710 51.997,246.104 52.238 C 245.673 52.303,245.058 52.465,244.738 52.599 C 243.719 53.025,228.725 52.866,228.403 52.426 C 228.028 51.914,228.053 33.304,228.429 32.929 C 228.901 32.456,244.440 32.543,245.955 33.027 M368.053 45.500 C 368.053 46.096,368.084 46.340,368.121 46.042 C 368.158 45.744,368.158 45.256,368.121 44.958 C 368.084 44.660,368.053 44.904,368.053 45.500 M368.066 61.250 C 368.066 62.533,368.092 63.036,368.124 62.368 C 368.156 61.699,368.155 60.649,368.123 60.034 C 368.091 59.420,368.065 59.967,368.066 61.250 " stroke="none" fill="#ffffff" fill-rule="evenodd"></path></g></svg>